# Blender v2.92.0 OBJ File: 'pallo final.blend'
# www.blender.org
o Pala_.025_Sphere.028
v 0.852256 0.569459 0.000000
v 0.946977 0.392251 0.000000
v 1.005305 0.199968 0.000000
v 0.835881 0.569459 0.166267
v 0.928781 0.392251 0.184746
v 0.985988 0.199968 0.196126
v 1.005305 0.000000 0.199968
v 0.985988 -0.199967 0.196126
v 0.874892 0.392251 0.362393
v 0.928780 0.199968 0.384714
v 0.946977 0.000000 0.392251
v 0.928780 -0.199967 0.384714
v 0.787382 0.392251 0.526112
v 0.852256 0.000000 0.569460
v 0.977614 0.291252 0.000000
v 0.941029 0.392251 -0.060389
v 0.844841 0.569459 -0.075294
v 1.024508 0.004999 0.000000
v 0.997898 0.199968 -0.075204
v 0.840981 -0.137687 0.561926
v 0.883116 -0.199967 0.470146
v 0.901644 -0.296797 0.373473
v 0.989538 -0.199967 0.160082
v 0.971553 -0.248486 0.193254
v 0.842898 0.114273 0.563207
v 0.872558 0.199968 0.489899
v 0.805779 0.319310 0.538405
v 0.760848 0.392251 0.558444
v 0.763697 0.659138 0.151909
v 0.788289 0.647404 0.000000
v 0.838959 0.465017 0.347508
v 0.811208 0.569459 0.247601
v 0.768216 0.435375 0.513306
v 0.796836 0.625256 -0.097771
v 0.823983 0.000000 0.603911
v 0.710463 0.707497 0.191340
v 0.801176 0.557076 -0.014499
v 0.895896 0.379867 -0.014499
v 0.784800 0.557076 0.151768
v 0.877700 0.379867 0.170247
v 0.934908 0.187584 0.181626
v 0.954225 -0.012383 0.185468
v 0.934908 -0.212351 0.181626
v 0.954225 0.187584 -0.014499
v 0.823812 0.379867 0.347893
v 0.877700 0.187584 0.370214
v 0.895896 -0.012383 0.377751
v 0.877700 -0.212351 0.370214
v 0.801176 -0.012383 0.554960
v 0.736302 0.379867 0.511613
v 0.926534 0.278869 -0.014499
v 0.889948 0.379867 -0.074889
v 0.793760 0.557076 -0.089794
v 0.973428 -0.007384 -0.014499
v 0.946818 0.187584 -0.089703
v 0.938458 -0.212351 0.145583
v 0.832036 -0.212351 0.455647
v 0.850563 -0.309180 0.358974
v 0.920473 -0.260869 0.178755
v 0.791818 0.101890 0.548707
v 0.821478 0.187584 0.475399
v 0.754699 0.306927 0.523905
v 0.709768 0.379867 0.543945
v 0.712617 0.646755 0.137410
v 0.737209 0.635021 -0.014499
v 0.787878 0.452633 0.333009
v 0.760128 0.557076 0.233102
v 0.717136 0.422992 0.498806
v 0.745755 0.612873 -0.112270
v 0.772903 -0.012383 0.589411
v 0.789900 -0.150070 0.547426
v 0.659383 0.695114 0.176841
v 0.977614 0.291252 0.000000
v 0.977614 0.291252 0.000000
v 0.941029 0.392251 -0.060389
v 0.989538 -0.199967 0.160082
v 1.024508 0.004999 0.000000
v 0.844841 0.569459 -0.075294
v 0.997898 0.199968 -0.075204
v 0.997898 0.199968 -0.075204
v 0.883116 -0.199967 0.470146
v 0.901644 -0.296797 0.373473
v 0.901644 -0.296797 0.373473
v 0.971553 -0.248486 0.193254
v 0.971553 -0.248486 0.193254
v 0.796836 0.625256 -0.097771
v 0.796836 0.625256 -0.097771
v 0.840981 -0.137687 0.561926
v 0.840981 -0.137687 0.561926
v 0.872558 0.199968 0.489899
v 0.872558 0.199968 0.489899
v 0.842898 0.114273 0.563207
v 0.805779 0.319310 0.538405
v 0.760848 0.392251 0.558444
v 0.760848 0.392251 0.558444
v 0.768216 0.435375 0.513306
v 0.768216 0.435375 0.513306
v 0.788289 0.647404 0.000000
v 0.763697 0.659138 0.151909
v 0.763697 0.659138 0.151909
v 0.811208 0.569459 0.247601
v 0.838959 0.465017 0.347508
v 0.838959 0.465017 0.347508
v 0.710463 0.707497 0.191340
v 0.710463 0.707497 0.191340
v 0.823983 0.000000 0.603911
v 0.823983 0.000000 0.603911
v 0.926534 0.278869 -0.014499
v 0.926534 0.278869 -0.014499
v 0.889948 0.379867 -0.074889
v 0.938458 -0.212351 0.145583
v 0.973428 -0.007384 -0.014499
v 0.793760 0.557076 -0.089794
v 0.946818 0.187584 -0.089703
v 0.946818 0.187584 -0.089703
v 0.832036 -0.212351 0.455647
v 0.850563 -0.309180 0.358974
v 0.850563 -0.309180 0.358974
v 0.920473 -0.260869 0.178755
v 0.920473 -0.260869 0.178755
v 0.745755 0.612873 -0.112270
v 0.745755 0.612873 -0.112270
v 0.789900 -0.150070 0.547426
v 0.789900 -0.150070 0.547426
v 0.821478 0.187584 0.475399
v 0.821478 0.187584 0.475399
v 0.791818 0.101890 0.548707
v 0.754699 0.306927 0.523905
v 0.709768 0.379867 0.543945
v 0.709768 0.379867 0.543945
v 0.717136 0.422992 0.498806
v 0.717136 0.422992 0.498806
v 0.737209 0.635021 -0.014499
v 0.712617 0.646755 0.137410
v 0.712617 0.646755 0.137410
v 0.760128 0.557076 0.233102
v 0.787878 0.452633 0.333009
v 0.787878 0.452633 0.333009
v 0.659383 0.695114 0.176841
v 0.659383 0.695114 0.176841
v 0.772903 -0.012383 0.589411
v 0.772903 -0.012383 0.589411
vt 0.051905 0.099115
vt 0.056944 0.070676
vt 0.080744 0.073824
vt 0.078179 0.102401
vt 0.075702 0.130661
vt 0.104471 0.103858
vt 0.103477 0.132305
vt 0.073574 0.158958
vt 0.101993 0.160706
vt 0.071849 0.187568
vt 0.100029 0.189274
vt 0.049437 0.114211
vt 0.043279 0.097321
vt 0.046297 0.068109
vt 0.044841 0.156084
vt 0.047845 0.127923
vt 0.066616 0.187393
vt 0.036993 0.126496
vt 0.130538 0.162412
vt 0.129249 0.182420
vt 0.113976 0.190497
vt 0.098976 0.203821
vt 0.071497 0.194892
vt 0.120657 0.132739
vt 0.131472 0.145811
vt 0.130969 0.103630
vt 0.131455 0.114630
vt 0.136994 0.103135
vt 0.130653 0.096579
vt 0.059642 0.056302
vt 0.082129 0.057125
vt 0.044991 0.056967
vt 0.093041 0.074233
vt 0.090080 0.048228
vt 0.104672 0.092056
vt 0.136994 0.162800
vt 0.051905 0.099115
vt 0.078179 0.102401
vt 0.080744 0.073824
vt 0.056944 0.070676
vt 0.075702 0.130661
vt 0.103477 0.132305
vt 0.104471 0.103858
vt 0.073574 0.158958
vt 0.101993 0.160706
vt 0.071849 0.187568
vt 0.100029 0.189274
vt 0.049437 0.114211
vt 0.043279 0.097321
vt 0.046297 0.068109
vt 0.044841 0.156084
vt 0.047845 0.127923
vt 0.066616 0.187393
vt 0.036993 0.126496
vt 0.113976 0.190497
vt 0.129249 0.182420
vt 0.130538 0.162412
vt 0.098976 0.203821
vt 0.071497 0.194892
vt 0.131472 0.145811
vt 0.120657 0.132739
vt 0.131455 0.114630
vt 0.130969 0.103630
vt 0.136994 0.103135
vt 0.130653 0.096579
vt 0.082129 0.057125
vt 0.059642 0.056302
vt 0.044991 0.056967
vt 0.093041 0.074233
vt 0.090080 0.048228
vt 0.104672 0.092056
vt 0.136994 0.162800
vt 0.030823 0.172836
vt 0.026669 0.172805
vt 0.028306 0.183736
vt 0.032459 0.183768
vt 0.024068 0.124403
vt 0.019914 0.124372
vt 0.025763 0.136767
vt 0.029916 0.136798
vt 0.030871 0.061401
vt 0.026718 0.061370
vt 0.028306 0.070372
vt 0.032459 0.070403
vt 0.029333 0.166302
vt 0.025180 0.166271
vt 0.030304 0.079539
vt 0.026151 0.079508
vt 0.021939 0.094322
vt 0.026093 0.094353
vt 0.030281 0.192379
vt 0.026127 0.192348
vt 0.023558 0.201340
vt 0.027711 0.201371
vt 0.029726 0.161530
vt 0.025573 0.161499
vt 0.025180 0.166271
vt 0.029333 0.166302
vt 0.028390 0.025543
vt 0.024237 0.025512
vt 0.026887 0.045325
vt 0.031041 0.045356
vt 0.024837 0.106891
vt 0.020684 0.106860
vt 0.022122 0.118528
vt 0.026275 0.118559
vt 0.026718 0.061370
vt 0.030871 0.061401
vt 0.018986 0.099386
vt 0.023139 0.099417
vt 0.027711 0.201371
vt 0.023558 0.201340
vt 0.021457 0.212179
vt 0.025610 0.212210
vt 0.023139 0.099417
vt 0.018986 0.099386
vt 0.025613 0.221248
vt 0.021460 0.221217
vt 0.019072 0.231460
vt 0.023225 0.231491
vt 0.027878 0.147776
vt 0.032031 0.147807
vt 0.032459 0.070403
vt 0.028306 0.070372
vt 0.026972 0.021081
vt 0.022819 0.021050
vt 0.025610 0.212210
vt 0.021457 0.212179
vt 0.032031 0.147807
vt 0.027878 0.147776
vt 0.025573 0.161499
vt 0.029726 0.161530
vt 0.023225 0.231491
vt 0.019072 0.231460
vt 0.021134 0.246497
vt 0.025287 0.246528
vt 0.032459 0.183768
vt 0.028306 0.183736
vt 0.026275 0.118559
vt 0.022122 0.118528
vt 0.019914 0.124372
vt 0.024068 0.124403
vn 0.9247 0.3805 0.0000
vn 0.8333 0.5528 0.0000
vn 0.8173 0.5528 0.1626
vn 0.9070 0.3805 0.1804
vn 0.9622 0.1939 0.1914
vn 0.8544 0.3805 0.3539
vn 0.9063 0.1939 0.3754
vn 0.9810 -0.0006 0.1941
vn 0.9239 0.0000 0.3827
vn 0.9624 -0.1937 0.1903
vn 0.9063 -0.1939 0.3754
vn 0.9561 0.2900 0.0422
vn 0.9107 0.4031 -0.0897
vn 0.8209 0.5653 -0.0808
vn 0.9967 0.0375 0.0714
vn 0.9810 0.1939 0.0000
vn 0.9833 -0.1555 0.0940
vn 0.9786 0.1816 -0.0964
vn 0.8314 0.0000 0.5556
vn 0.8657 -0.0978 0.4909
vn 0.8727 -0.1442 0.4664
vn 0.8934 -0.2902 0.3428
vn 0.9285 -0.2900 0.2320
vn 0.8659 0.1898 0.4628
vn 0.8651 0.0978 0.4919
vn 0.7689 0.3805 0.5137
vn 0.8294 0.2897 0.4776
vn 0.7170 0.3738 0.5884
vn 0.7533 0.4711 0.4589
vn 0.7730 0.6344 0.0096
vn 0.7545 0.6343 0.1686
vn 0.7708 0.6326 -0.0759
vn 0.8077 0.5362 0.2450
vn 0.7411 0.6326 0.2248
vn 0.8239 0.4712 0.3149
vn 0.7730 -0.0023 0.6344
vn -0.9247 -0.3805 0.0000
vn -0.9070 -0.3805 -0.1804
vn -0.8173 -0.5528 -0.1626
vn -0.8333 -0.5528 0.0000
vn -0.9622 -0.1939 -0.1914
vn -0.9063 -0.1939 -0.3754
vn -0.8544 -0.3805 -0.3539
vn -0.9810 0.0006 -0.1941
vn -0.9239 0.0000 -0.3827
vn -0.9624 0.1937 -0.1903
vn -0.9063 0.1939 -0.3754
vn -0.9561 -0.2900 -0.0422
vn -0.9107 -0.4031 0.0897
vn -0.8209 -0.5653 0.0808
vn -0.9967 -0.0375 -0.0714
vn -0.9810 -0.1939 0.0000
vn -0.9833 0.1555 -0.0940
vn -0.9786 -0.1816 0.0964
vn -0.8727 0.1442 -0.4664
vn -0.8657 0.0978 -0.4909
vn -0.8314 0.0000 -0.5556
vn -0.8934 0.2902 -0.3428
vn -0.9285 0.2900 -0.2320
vn -0.8651 -0.0978 -0.4919
vn -0.8659 -0.1898 -0.4628
vn -0.8294 -0.2897 -0.4776
vn -0.7689 -0.3805 -0.5137
vn -0.7170 -0.3738 -0.5884
vn -0.7533 -0.4711 -0.4589
vn -0.7545 -0.6343 -0.1686
vn -0.7730 -0.6344 -0.0096
vn -0.7708 -0.6326 0.0759
vn -0.8077 -0.5362 -0.2450
vn -0.7411 -0.6326 -0.2248
vn -0.8239 -0.4712 -0.3149
vn -0.7730 0.0023 -0.6344
vn -0.1573 -0.4055 0.9004
vn -0.1609 -0.3953 0.9043
vn -0.1445 -0.4409 0.8858
vn -0.3052 0.1598 0.9387
vn -0.3330 0.3472 0.8766
vn -0.3423 0.4403 0.8300
vn 0.0609 0.6427 -0.7637
vn -0.1733 -0.3588 0.9172
vn 0.3132 -0.2066 -0.9269
vn 0.3005 -0.1340 -0.9443
vn 0.2847 -0.0539 -0.9571
vn 0.2747 -0.0072 -0.9615
vn -0.3489 0.5559 0.7544
vn -0.3467 0.5044 0.7908
vn -0.3350 0.3649 0.8687
vn -0.3465 0.7058 0.6178
vn 0.3497 -0.6132 -0.7082
vn 0.3497 -0.6133 -0.7082
vn 0.3447 -0.4713 -0.8118
vn 0.3437 -0.4574 -0.8201
vn -0.1885 0.9684 -0.1630
vn -0.1841 0.9668 -0.1772
vn -0.2051 0.9727 -0.1083
vn 0.3272 -0.3009 -0.8957
vn 0.2987 -0.1241 -0.9462
vn -0.1900 -0.3077 0.9323
vn -0.1666 0.9584 -0.2317
vn 0.0063 -0.7713 0.6364
vn 0.0019 -0.7638 0.6455
vn -0.0281 -0.7089 0.7047
vn -0.3497 0.5974 0.7217
vn 0.3377 -0.3899 -0.8567
vn 0.3497 -0.6136 -0.7079
vn 0.0361 -0.8191 0.5724
vn -0.2524 0.9654 0.0649
vn 0.2727 -0.9505 -0.1490
vn -0.3482 0.6760 0.6494
vn 0.0507 0.6641 -0.7459
s 1
f 2/1/1 1/2/2 4/3/3 5/4/4
f 6/5/5 5/4/4 9/6/6 10/7/7
f 7/8/8 6/5/5 10/7/7 11/9/9
f 8/10/10 7/8/8 11/9/9 12/11/11
f 73/12/12 75/13/13 2/1/1
f 75/13/13 78/14/14 1/2/2 2/1/1
f 77/15/15 3/16/16 6/5/5 7/8/8
f 76/17/17 77/15/15 7/8/8 8/10/10
f 77/15/15 79/18/18 3/16/16
f 3/16/16 73/12/12 2/1/1 5/4/4 6/5/5
f 79/18/18 73/12/12 3/16/16
f 12/11/11 11/9/9 14/19/19 88/20/20 81/21/21
f 81/21/21 82/22/22 12/11/11
f 84/23/23 76/17/17 8/10/10
f 82/22/22 84/23/23 8/10/10 12/11/11
f 11/9/9 10/7/7 90/24/24 92/25/25 14/19/19
f 10/7/7 9/6/6 13/26/26 93/27/27 90/24/24
f 13/26/26 94/28/28 93/27/27
f 96/29/29 94/28/28 13/26/26
f 1/2/2 98/30/30 99/31/31 4/3/3
f 78/14/14 86/32/32 98/30/30 1/2/2
f 5/4/4 4/3/3 101/33/33 9/6/6
f 4/3/3 99/31/31 104/34/34 101/33/33
f 9/6/6 102/35/35 96/29/29 13/26/26
f 92/25/25 106/36/36 14/19/19
f 106/36/36 88/20/20 14/19/19
f 38/37/37 40/38/38 39/39/39 37/40/40
f 9/6/6 101/33/33 102/35/35
f 41/41/41 46/42/42 45/43/43 40/38/38
f 42/44/44 47/45/45 46/42/42 41/41/41
f 43/46/46 48/47/47 47/45/45 42/44/44
f 108/48/48 38/37/37 110/49/49
f 110/49/49 38/37/37 37/40/40 113/50/50
f 112/51/51 42/44/44 41/41/41 44/52/52
f 111/53/53 43/46/46 42/44/44 112/51/51
f 112/51/51 44/52/52 114/54/54
f 44/52/52 41/41/41 40/38/38 38/37/37 108/48/48
f 114/54/54 44/52/52 108/48/48
f 48/47/47 116/55/55 123/56/56 49/57/57 47/45/45
f 116/55/55 48/47/47 117/58/58
f 119/59/59 43/46/46 111/53/53
f 117/58/58 48/47/47 43/46/46 119/59/59
f 47/45/45 49/57/57 127/60/60 125/61/61 46/42/42
f 46/42/42 125/61/61 128/62/62 50/63/63 45/43/43
f 50/63/63 128/62/62 129/64/64
f 131/65/65 50/63/63 129/64/64
f 37/40/40 39/39/39 134/66/66 133/67/67
f 113/50/50 37/40/40 133/67/67 121/68/68
f 40/38/38 45/43/43 136/69/69 39/39/39
f 39/39/39 136/69/69 139/70/70 134/66/66
f 45/43/43 50/63/63 131/65/65 137/71/71
f 127/60/60 49/57/57 141/72/72
f 141/72/72 49/57/57 123/56/56
f 45/43/43 137/71/71 136/69/69
f 27/73/73 62/74/74 126/75/75 91/76/75
f 105/77/76 140/78/76 67/79/77 32/80/78
f 80/81/79 115/82/79 109/83/79 74/84/79
f 95/85/80 130/86/80 62/74/74 27/73/73
f 16/87/81 52/88/82 53/89/83 17/90/84
f 25/91/85 60/92/86 142/93/87 107/94/87
f 97/95/88 132/96/88 63/97/88 28/98/88
f 23/99/89 56/100/90 54/101/91 18/102/92
f 30/103/93 65/104/94 135/105/95 100/106/95
f 18/102/92 54/101/91 55/107/96 19/108/96
f 17/90/84 53/89/83 122/109/97 87/110/97
f 35/111/98 70/112/98 124/113/98 89/114/98
f 34/115/99 69/116/99 65/104/94 30/103/93
f 21/117/100 57/118/101 118/119/102 83/120/102
f 32/80/78 67/79/77 138/121/103 103/122/103
f 15/123/104 51/124/104 52/88/82 16/87/81
f 85/125/105 120/126/105 56/100/90 23/99/89
f 20/127/106 71/128/106 57/118/101 21/117/100
f 31/129/107 66/130/107 68/131/107 33/132/107
f 22/133/108 58/134/108 59/135/108 24/136/108
f 26/137/109 61/138/109 60/92/86 25/91/85
f 29/139/110 64/140/110 72/141/110 36/142/110
