# Blender v2.92.0 OBJ File: 'pallo final.blend'
# www.blender.org
o Pala_.018_Sphere.021
v 0.710858 -0.199967 0.710858
v 0.558517 -0.199967 0.835881
v 0.526112 -0.392250 0.787383
v 0.473488 -0.569459 0.708626
v 0.392250 0.000000 0.946977
v 0.384713 -0.199967 0.928781
v 0.362392 -0.392250 0.874893
v 0.326144 -0.569459 0.787382
v 0.199968 0.000000 1.005305
v 0.196125 -0.199967 0.985988
v 0.184746 -0.392250 0.928781
v 0.166267 -0.569459 0.835881
v -0.000000 -0.199967 1.005305
v 0.000000 -0.392250 0.946977
v 0.071898 0.000000 1.017919
v -0.000000 -0.158691 1.009370
v 0.715515 -0.133092 0.715516
v 0.004157 -0.569459 0.851847
v 0.304643 -0.637921 0.735474
v 0.157657 -0.623236 0.792595
v 0.564492 -0.090787 0.844822
v 0.459753 0.000000 0.910896
v 0.370491 -0.645794 0.690640
v 0.388712 0.093878 0.938434
v 0.199148 0.042671 1.001183
v -0.094956 -0.392250 0.937625
v -0.122182 -0.199967 0.993271
v 0.432659 0.196644 0.903523
v 0.754916 -0.203344 0.660211
v 0.766370 -0.139338 0.656144
v 0.454421 -0.611278 0.680090
v 0.527177 -0.569459 0.664564
v 0.565327 -0.392250 0.755200
v 0.687452 -0.294986 0.688784
v 0.513140 -0.458810 0.752366
v 0.340417 -0.371207 0.819326
v 0.504137 -0.371207 0.731816
v 0.362738 -0.178925 0.873214
v 0.536542 -0.178925 0.780314
v 0.688883 -0.178925 0.655291
v 0.370275 0.021043 0.891410
v 0.304169 -0.548416 0.731816
v 0.451513 -0.548416 0.653059
v 0.177992 0.021043 0.949739
v 0.174150 -0.178925 0.930422
v 0.162771 -0.371207 0.873214
v 0.144292 -0.548416 0.780314
v -0.021975 -0.178925 0.949738
v -0.021975 -0.371207 0.891410
v 0.348516 -0.624751 0.635073
v 0.432446 -0.590235 0.624523
v 0.049922 0.021043 0.962352
v -0.021975 -0.137648 0.953804
v 0.693540 -0.112049 0.659949
v -0.017819 -0.548416 0.796280
v 0.282668 -0.616878 0.679908
v 0.135682 -0.602194 0.737028
v 0.542517 -0.069744 0.789255
v 0.437778 0.021043 0.855329
v 0.366737 0.114921 0.882868
v 0.177172 0.063714 0.945616
v -0.116931 -0.371207 0.882058
v -0.144157 -0.178925 0.937704
v 0.410684 0.217687 0.847956
v 0.491165 -0.437767 0.696799
v 0.543351 -0.371207 0.699633
v 0.719492 -0.178925 0.617994
v 0.730945 -0.114918 0.613927
v 0.505202 -0.548416 0.608998
v 0.665477 -0.273943 0.633217
v 0.370491 -0.645794 0.690640
v 0.370491 -0.645794 0.690640
v 0.454421 -0.611278 0.680090
v 0.304643 -0.637921 0.735474
v 0.199148 0.042671 1.001183
v 0.071898 0.000000 1.017919
v 0.071898 0.000000 1.017919
v -0.000000 -0.158691 1.009370
v -0.000000 -0.158691 1.009370
v -0.094956 -0.392250 0.937625
v 0.004157 -0.569459 0.851847
v 0.004157 -0.569459 0.851847
v 0.157657 -0.623236 0.792595
v 0.715515 -0.133092 0.715516
v 0.564492 -0.090787 0.844822
v 0.459753 0.000000 0.910896
v 0.459753 0.000000 0.910896
v 0.388712 0.093878 0.938434
v 0.388712 0.093878 0.938434
v -0.122182 -0.199967 0.993271
v -0.122182 -0.199967 0.993271
v 0.432659 0.196644 0.903523
v 0.432659 0.196644 0.903523
v 0.513140 -0.458810 0.752366
v 0.513140 -0.458810 0.752366
v 0.565327 -0.392250 0.755200
v 0.766370 -0.139338 0.656144
v 0.766370 -0.139338 0.656144
v 0.687452 -0.294986 0.688784
v 0.754916 -0.203344 0.660211
v 0.527177 -0.569459 0.664564
v 0.527177 -0.569459 0.664564
v 0.348516 -0.624751 0.635073
v 0.348516 -0.624751 0.635073
v 0.432446 -0.590235 0.624523
v 0.282668 -0.616878 0.679908
v 0.177172 0.063714 0.945616
v 0.049922 0.021043 0.962352
v 0.049922 0.021043 0.962352
v -0.021975 -0.137648 0.953804
v -0.021975 -0.137648 0.953804
v -0.116931 -0.371207 0.882058
v -0.017819 -0.548416 0.796280
v -0.017819 -0.548416 0.796280
v 0.135682 -0.602194 0.737028
v 0.693540 -0.112049 0.659949
v 0.542517 -0.069744 0.789255
v 0.437778 0.021043 0.855329
v 0.437778 0.021043 0.855329
v 0.366737 0.114921 0.882868
v 0.366737 0.114921 0.882868
v -0.144157 -0.178925 0.937704
v -0.144157 -0.178925 0.937704
v 0.410684 0.217687 0.847956
v 0.410684 0.217687 0.847956
v 0.491165 -0.437767 0.696799
v 0.491165 -0.437767 0.696799
v 0.543351 -0.371207 0.699633
v 0.730945 -0.114918 0.613927
v 0.730945 -0.114918 0.613927
v 0.665477 -0.273943 0.633217
v 0.719492 -0.178925 0.617994
v 0.505202 -0.548416 0.608998
v 0.505202 -0.548416 0.608998
vt 0.903443 0.545043
vt 0.925157 0.568246
vt 0.901259 0.589835
vt 0.880365 0.568261
vt 0.949554 0.546865
vt 0.970703 0.571743
vt 0.945721 0.592291
vt 0.920559 0.612416
vt 0.877505 0.611851
vt 0.895196 0.632497
vt 0.965080 0.617556
vt 0.938457 0.636338
vt 0.976114 0.567229
vt 0.984085 0.588069
vt 0.970572 0.613567
vt 0.946928 0.649553
vt 0.910754 0.654343
vt 0.886155 0.639555
vt 0.866908 0.621780
vt 0.916349 0.532504
vt 0.880408 0.522663
vt 0.887964 0.514544
vt 0.941311 0.537406
vt 0.968248 0.518812
vt 0.961224 0.536782
vt 0.976447 0.634074
vt 0.857901 0.615819
vt 0.857978 0.592750
vt 0.869268 0.534909
vt 0.874459 0.517354
vt 0.880351 0.508286
vt 0.852087 0.599448
vt 0.848977 0.585636
vt 0.871917 0.577001
vt 0.874170 0.562637
vt 0.903443 0.545043
vt 0.880365 0.568261
vt 0.901259 0.589835
vt 0.925157 0.568246
vt 0.945721 0.592291
vt 0.970703 0.571743
vt 0.949554 0.546865
vt 0.920559 0.612416
vt 0.877505 0.611851
vt 0.895196 0.632497
vt 0.938457 0.636338
vt 0.965080 0.617556
vt 0.984085 0.588069
vt 0.976114 0.567229
vt 0.970572 0.613567
vt 0.946928 0.649553
vt 0.910754 0.654343
vt 0.886155 0.639555
vt 0.866908 0.621780
vt 0.916349 0.532504
vt 0.887964 0.514544
vt 0.880408 0.522663
vt 0.941311 0.537406
vt 0.961224 0.536782
vt 0.968248 0.518812
vt 0.976447 0.634074
vt 0.857901 0.615819
vt 0.857978 0.592750
vt 0.869268 0.534909
vt 0.874459 0.517354
vt 0.880351 0.508286
vt 0.852087 0.599448
vt 0.848977 0.585636
vt 0.871917 0.577001
vt 0.874170 0.562637
vt 0.851697 0.660650
vt 0.851258 0.664314
vt 0.854517 0.663153
vt 0.854955 0.659489
vt 0.928521 0.669751
vt 0.928082 0.673415
vt 0.939850 0.673386
vt 0.940289 0.669722
vt 0.848272 0.659016
vt 0.847833 0.662680
vt 0.851258 0.664314
vt 0.851697 0.660650
vt 0.903892 0.664583
vt 0.903453 0.668247
vt 0.911120 0.670062
vt 0.911559 0.666398
vt 0.875528 0.659697
vt 0.875089 0.663361
vt 0.885012 0.669313
vt 0.885451 0.665648
vt 0.976861 0.672399
vt 0.976422 0.676063
vt 0.981742 0.676207
vt 0.982181 0.672543
vt 0.911559 0.666398
vt 0.911120 0.670062
vt 0.921281 0.670090
vt 0.921720 0.666426
vt 0.885451 0.665648
vt 0.885012 0.669313
vt 0.891492 0.667184
vt 0.891931 0.663520
vt 0.986661 0.676930
vt 0.987100 0.673265
vt 0.952681 0.673867
vt 0.953120 0.670203
vt 0.953120 0.670203
vt 0.952681 0.673867
vt 0.962764 0.673951
vt 0.963203 0.670287
vt 0.972397 0.671050
vt 0.971958 0.674714
vt 0.976422 0.676063
vt 0.976861 0.672399
vt 0.921720 0.666426
vt 0.921281 0.670090
vt 0.928082 0.673415
vt 0.928521 0.669751
vt 0.833178 0.652845
vt 0.832739 0.656509
vt 0.841814 0.660424
vt 0.842253 0.656760
vt 0.828294 0.652171
vt 0.827855 0.655835
vt 0.987100 0.673265
vt 0.986661 0.676930
vt 0.994857 0.675835
vt 0.995296 0.672171
vt 0.866280 0.661806
vt 0.866719 0.658142
vt 0.875089 0.663361
vt 0.875528 0.659697
vt 0.891931 0.663520
vt 0.891492 0.667184
vn 0.5468 -0.1956 0.8141
vn 0.3754 -0.1939 0.9063
vn 0.3547 -0.3806 0.8540
vn 0.5137 -0.3820 0.7682
vn 0.3827 0.0000 0.9239
vn 0.1951 0.0000 0.9808
vn 0.1914 -0.1939 0.9622
vn 0.1804 -0.3805 0.9070
vn 0.3204 -0.5551 0.7676
vn 0.1626 -0.5528 0.8173
vn 0.0000 -0.1939 0.9810
vn -0.0005 -0.3813 0.9244
vn 0.2120 0.0980 0.9723
vn 0.0978 -0.0705 0.9927
vn 0.0366 -0.0979 0.9945
vn -0.0912 -0.3654 0.9263
vn 0.0540 -0.4995 0.8646
vn 0.1642 -0.6343 0.7554
vn 0.3026 -0.6391 0.7071
vn 0.5333 -0.0980 0.8402
vn 0.6813 -0.2011 0.7038
vn 0.6876 -0.0968 0.7196
vn 0.4712 -0.0256 0.8816
vn 0.4691 0.0975 0.8777
vn 0.4108 0.0980 0.9064
vn -0.0948 -0.2550 0.9623
vn 0.3642 -0.6396 0.6769
vn 0.4607 -0.5542 0.6933
vn 0.6339 -0.3014 0.7123
vn 0.7370 -0.1815 0.6511
vn 0.7496 -0.0952 0.6550
vn 0.3922 -0.6337 0.6667
vn 0.5357 -0.5356 0.6528
vn 0.4601 -0.4710 0.7526
vn 0.5997 -0.3496 0.7198
vn -0.5468 0.1956 -0.8141
vn -0.5137 0.3820 -0.7682
vn -0.3547 0.3806 -0.8540
vn -0.3754 0.1939 -0.9063
vn -0.1914 0.1939 -0.9622
vn -0.1951 0.0000 -0.9808
vn -0.3827 0.0000 -0.9239
vn -0.1804 0.3805 -0.9070
vn -0.3204 0.5551 -0.7676
vn -0.1626 0.5528 -0.8173
vn 0.0005 0.3813 -0.9244
vn 0.0000 0.1939 -0.9810
vn -0.0978 0.0705 -0.9927
vn -0.2120 -0.0980 -0.9723
vn -0.0366 0.0979 -0.9945
vn 0.0912 0.3654 -0.9263
vn -0.0540 0.4995 -0.8646
vn -0.1642 0.6343 -0.7554
vn -0.3026 0.6391 -0.7071
vn -0.5333 0.0980 -0.8402
vn -0.6982 0.0980 -0.7091
vn -0.6941 0.2034 -0.6905
vn -0.4712 0.0256 -0.8816
vn -0.4108 -0.0980 -0.9064
vn -0.4691 -0.0975 -0.8777
vn 0.0948 0.2550 -0.9623
vn -0.3642 0.6396 -0.6769
vn -0.4607 0.5542 -0.6933
vn -0.6349 0.3003 -0.7118
vn -0.7594 0.1870 -0.6232
vn -0.7693 0.0975 -0.6314
vn -0.3922 0.6337 -0.6667
vn -0.5357 0.5356 -0.6528
vn -0.4601 0.4710 -0.7526
vn -0.5997 0.3496 -0.7198
vn 0.3524 0.9105 0.2164
vn 0.3734 0.9054 0.2018
vn 0.3847 0.9024 0.1939
vn -0.9332 -0.2153 0.2875
vn -0.9035 -0.3694 0.2174
vn -0.8972 -0.3901 0.2070
vn 0.6552 -0.3877 -0.6483
vn 0.6723 -0.3291 -0.6631
vn 0.7043 -0.1698 -0.6892
vn -0.1757 0.8956 0.4086
vn -0.1789 0.8946 0.4095
vn -0.2371 0.8737 0.4247
vn 0.9379 0.1170 -0.3266
vn 0.2942 -0.8494 -0.4380
vn 0.3314 -0.8314 -0.4459
vn 0.3330 -0.8306 -0.4462
vn -0.8198 0.3469 0.4556
vn -0.7402 0.4774 0.4735
vn 0.3695 -0.8112 -0.4533
vn -0.8372 -0.5311 0.1299
vn -0.3886 -0.9020 -0.1879
vn -0.3009 -0.9252 -0.2314
vn -0.2920 -0.9269 -0.2355
vn -0.2373 -0.9358 -0.2605
vn -0.2406 -0.9354 -0.2591
vn -0.2765 -0.9298 -0.2428
vn -0.3386 0.8278 0.4474
vn 0.5739 -0.6645 -0.4786
vn 0.5426 -0.6917 -0.4765
vn 0.5210 -0.6534 -0.5491
vn 0.4834 -0.7013 -0.5238
vn 0.7011 -0.5293 -0.4777
vn 0.9181 0.3111 -0.2453
vn 0.5346 0.8384 0.1061
vn 0.5495 0.8298 0.0969
vn 0.6625 0.7487 0.0215
vn -0.1168 0.9126 0.3918
s 1
f 2/1/1 6/2/2 7/3/3 3/4/4
f 6/2/2 5/5/5 9/6/6 10/7/7
f 7/3/3 6/2/2 10/7/7 11/8/8
f 8/9/9 7/3/3 11/8/8 12/10/10
f 11/8/8 10/7/7 13/11/11 14/12/12
f 9/6/6 75/13/13 76/14/14
f 10/7/7 9/6/6 76/14/14 78/15/15 13/11/11
f 80/16/16 81/17/17 14/12/12
f 12/10/10 11/8/8 14/12/12 81/17/17
f 83/18/18 74/19/19 8/9/9 12/10/10
f 81/17/17 83/18/18 12/10/10
f 85/20/20 2/1/1 1/21/21 84/22/22
f 85/20/20 86/23/23 5/5/5 6/2/2 2/1/1
f 86/23/23 92/24/24 88/25/25 5/5/5
f 5/5/5 88/25/25 75/13/13 9/6/6
f 14/12/12 13/11/11 90/26/26 80/16/16
f 13/11/11 78/15/15 90/26/26
f 71/27/27 4/28/28 8/9/9 74/19/19
f 99/29/29 100/30/30 1/21/21
f 100/30/30 97/31/31 84/22/22 1/21/21
f 71/27/27 73/32/32 4/28/28
f 73/32/32 101/33/33 4/28/28
f 94/34/34 96/35/35 3/4/4
f 96/35/35 99/29/29 1/21/21 2/1/1 3/4/4
f 3/4/4 7/3/3 8/9/9 4/28/28 94/34/34
f 101/33/33 94/34/34 4/28/28
f 39/36/36 37/37/37 36/38/38 38/39/39
f 38/39/39 45/40/40 44/41/41 41/42/42
f 36/38/38 46/43/43 45/40/40 38/39/39
f 42/44/44 47/45/45 46/43/43 36/38/38
f 46/43/43 49/46/46 48/47/47 45/40/40
f 44/41/41 108/48/48 107/49/49
f 45/40/40 48/47/47 110/50/50 108/48/48 44/41/41
f 112/51/51 49/46/46 113/52/52
f 47/45/45 113/52/52 49/46/46 46/43/43
f 115/53/53 47/45/45 42/44/44 106/54/54
f 113/52/52 47/45/45 115/53/53
f 117/55/55 116/56/56 40/57/57 39/36/36
f 117/55/55 39/36/36 38/39/39 41/42/42 118/58/58
f 118/58/58 41/42/42 120/59/59 124/60/60
f 41/42/42 44/41/41 107/49/49 120/59/59
f 49/46/46 112/51/51 122/61/61 48/47/47
f 48/47/47 122/61/61 110/50/50
f 103/62/62 106/54/54 42/44/44 43/63/63
f 131/64/64 40/57/57 132/65/65
f 132/65/65 40/57/57 116/56/56 129/66/66
f 103/62/62 43/63/63 105/67/67
f 105/67/67 43/63/63 133/68/68
f 126/69/69 37/37/37 128/70/70
f 128/70/70 37/37/37 39/36/36 40/57/57 131/64/64
f 37/37/37 126/69/69 43/63/63 42/44/44 36/38/38
f 133/68/68 43/63/63 126/69/69
f 98/71/71 130/72/71 54/73/72 17/74/73
f 91/75/74 123/76/74 62/77/75 26/78/76
f 29/79/77 67/80/78 68/81/79 30/82/79
f 25/83/80 61/84/81 109/85/82 77/86/82
f 87/87/83 119/88/83 125/89/83 93/90/83
f 72/91/84 104/92/84 51/93/85 31/94/86
f 15/95/87 52/96/87 111/97/87 79/98/87
f 28/99/88 64/100/88 121/101/88 89/102/88
f 31/94/86 51/93/85 134/103/89 102/104/89
f 26/78/76 62/77/75 114/105/90 82/106/90
f 18/107/91 55/108/91 57/109/92 20/110/93
f 19/111/94 56/112/95 50/113/96 23/114/96
f 16/115/97 53/116/97 63/117/97 27/118/97
f 33/119/98 66/120/99 70/121/100 34/122/101
f 20/110/93 57/109/92 56/112/95 19/111/94
f 95/123/102 127/124/102 66/120/99 33/119/98
f 32/125/103 69/126/103 65/127/103 35/128/103
f 17/74/73 54/73/72 58/129/104 21/130/105
f 21/130/105 58/129/104 59/131/106 22/132/106
f 24/133/107 60/134/107 61/84/81 25/83/80
f 34/122/101 70/121/100 67/80/78 29/79/77
