# Blender v2.92.0 OBJ File: 'pallo final.blend'
# www.blender.org
o Pala_.003_Sphere.006
v -0.512500 -0.724784 0.512500
v -0.708625 -0.569459 0.473488
v -0.602636 -0.724784 0.402669
v -0.473488 -0.852256 0.316375
v -0.787382 -0.569459 0.326144
v -0.669613 -0.724784 0.277363
v -0.526112 -0.852256 0.217923
v -0.835880 -0.569459 0.166267
v -0.710858 -0.724784 0.141399
v -0.558517 -0.852256 0.111096
v -0.852256 -0.569459 0.000000
v -0.724784 -0.724784 0.000000
v -0.569459 -0.852256 0.000000
v -0.710858 -0.724784 -0.141398
v -0.558517 -0.852256 -0.111096
v -0.669613 -0.724784 -0.277363
v -0.526112 -0.852256 -0.217922
v -0.602636 -0.724784 -0.402668
v -0.512500 -0.724784 -0.512500
v -0.896216 -0.487217 0.000000
v -0.549416 -0.661169 -0.549416
v -0.658805 -0.642470 -0.440199
v -0.404625 -0.725679 0.598877
v -0.744419 -0.626123 -0.308348
v -0.600383 -0.573343 0.600383
v -0.832754 -0.573343 -0.165645
v -0.836289 -0.569459 -0.162110
v -0.745148 -0.487281 0.497892
v -0.893631 -0.459299 0.177755
v -0.835725 -0.471565 0.346169
v -0.402432 -0.923812 0.166693
v -0.425783 -0.924594 0.084694
v -0.472821 -0.903911 0.000000
v -0.477679 -0.896312 -0.095016
v -0.439778 -0.902205 -0.182162
v -0.474298 -0.851457 -0.316915
v -0.474307 -0.852256 -0.314843
v -0.463913 -0.724784 -0.552374
v -0.456397 -0.654509 -0.632792
v -0.437231 -0.812142 0.437232
v -0.433585 -0.852256 0.364997
v -0.392562 -0.904280 0.262302
v -0.460653 -0.784959 -0.460653
v -0.676413 -0.531376 0.470900
v -0.570424 -0.686701 0.400081
v -0.441276 -0.814173 0.313787
v -0.480288 -0.686701 0.509912
v -0.755170 -0.531376 0.323557
v -0.637401 -0.686701 0.274775
v -0.493900 -0.814173 0.215335
v -0.803668 -0.531376 0.163679
v -0.678646 -0.686701 0.138811
v -0.526305 -0.814173 0.108508
v -0.820044 -0.531376 -0.002588
v -0.692572 -0.686701 -0.002588
v -0.537247 -0.814173 -0.002588
v -0.678646 -0.686701 -0.143986
v -0.526305 -0.814173 -0.113684
v -0.637401 -0.686701 -0.279951
v -0.493900 -0.814173 -0.220510
v -0.570424 -0.686701 -0.405256
v -0.480288 -0.686701 -0.515088
v -0.864004 -0.449133 -0.002588
v -0.517204 -0.623085 -0.552004
v -0.626593 -0.604387 -0.442787
v -0.395493 -0.681185 0.588145
v -0.712207 -0.588039 -0.310936
v -0.568171 -0.535259 0.597795
v -0.800542 -0.535259 -0.168233
v -0.804077 -0.531376 -0.164698
v -0.712936 -0.449197 0.495304
v -0.861419 -0.421215 0.175167
v -0.803513 -0.433481 0.343581
v -0.370220 -0.885728 0.164105
v -0.393571 -0.886511 0.082106
v -0.440609 -0.865827 -0.002588
v -0.445467 -0.858228 -0.097604
v -0.407566 -0.864121 -0.184750
v -0.442086 -0.813373 -0.319503
v -0.442095 -0.814173 -0.317430
v -0.431700 -0.686701 -0.554962
v -0.453224 -0.621991 -0.623966
v -0.405019 -0.774059 0.434644
v -0.401373 -0.814173 0.362410
v -0.360350 -0.866196 0.259714
v -0.428441 -0.746875 -0.463240
v -0.600383 -0.573343 0.600383
v -0.600383 -0.573343 0.600383
v -0.745148 -0.487281 0.497892
v -0.745148 -0.487281 0.497892
v -0.896216 -0.487217 0.000000
v -0.893631 -0.459299 0.177755
v -0.658805 -0.642470 -0.440199
v -0.549416 -0.661169 -0.549416
v -0.744419 -0.626123 -0.308348
v -0.832754 -0.573343 -0.165645
v -0.404625 -0.725679 0.598877
v -0.404625 -0.725679 0.598877
v -0.836289 -0.569459 -0.162110
v -0.568171 -0.535259 0.597795
v -0.568171 -0.535259 0.597795
v -0.712936 -0.449197 0.495304
v -0.712936 -0.449197 0.495304
v -0.835725 -0.471565 0.346169
v -0.456397 -0.654509 -0.632792
v -0.456397 -0.654509 -0.632792
v -0.425783 -0.924594 0.084694
v -0.402432 -0.923812 0.166693
v -0.472821 -0.903911 0.000000
v -0.477679 -0.896312 -0.095016
v -0.439778 -0.902205 -0.182162
v -0.439778 -0.902205 -0.182162
v -0.474307 -0.852256 -0.314843
v -0.474298 -0.851457 -0.316915
v -0.460653 -0.784959 -0.460653
v -0.463913 -0.724784 -0.552374
v -0.433585 -0.852256 0.364997
v -0.437231 -0.812142 0.437232
v -0.392562 -0.904280 0.262302
v -0.864004 -0.449133 -0.002588
v -0.861419 -0.421215 0.175167
v -0.626593 -0.604387 -0.442787
v -0.517204 -0.623085 -0.552004
v -0.712207 -0.588039 -0.310936
v -0.800542 -0.535259 -0.168233
v -0.395493 -0.681185 0.588145
v -0.395493 -0.681185 0.588145
v -0.804077 -0.531376 -0.164698
v -0.803513 -0.433481 0.343581
v -0.453224 -0.621991 -0.623966
v -0.453224 -0.621991 -0.623966
v -0.393571 -0.886511 0.082106
v -0.370220 -0.885728 0.164105
v -0.440609 -0.865827 -0.002588
v -0.445467 -0.858228 -0.097604
v -0.407566 -0.864121 -0.184750
v -0.407566 -0.864121 -0.184750
v -0.442095 -0.814173 -0.317430
v -0.442086 -0.813373 -0.319503
v -0.428441 -0.746875 -0.463240
v -0.431700 -0.686701 -0.554962
v -0.401373 -0.814173 0.362410
v -0.405019 -0.774059 0.434644
v -0.360350 -0.866196 0.259714
vt 0.275553 0.702152
vt 0.290302 0.732588
vt 0.264113 0.743175
vt 0.253638 0.711284
vt 0.260106 0.672043
vt 0.242837 0.679520
vt 0.236901 0.750208
vt 0.230813 0.717246
vt 0.224716 0.684298
vt 0.208982 0.753527
vt 0.207350 0.719976
vt 0.206104 0.686359
vt 0.183622 0.719292
vt 0.187285 0.685644
vt 0.160032 0.715064
vt 0.168696 0.682061
vt 0.240852 0.771074
vt 0.209858 0.769395
vt 0.137130 0.707430
vt 0.130192 0.724369
vt 0.108204 0.708807
vt 0.115410 0.696564
vt 0.154780 0.736262
vt 0.180551 0.752459
vt 0.296199 0.690049
vt 0.314888 0.717952
vt 0.314888 0.675364
vt 0.181207 0.753324
vt 0.314725 0.719032
vt 0.297177 0.747067
vt 0.269959 0.761201
vt 0.220010 0.658678
vt 0.234245 0.655141
vt 0.205508 0.667703
vt 0.189133 0.669744
vt 0.173529 0.664593
vt 0.151043 0.675690
vt 0.150472 0.675842
vt 0.123757 0.682489
vt 0.089484 0.697882
vt 0.106466 0.690416
vt 0.269197 0.666297
vt 0.282773 0.670618
vt 0.251191 0.655393
vt 0.314816 0.674654
vt 0.275553 0.702152
vt 0.253638 0.711284
vt 0.264113 0.743175
vt 0.290302 0.732588
vt 0.260106 0.672043
vt 0.242837 0.679520
vt 0.230813 0.717246
vt 0.236901 0.750208
vt 0.224716 0.684298
vt 0.207350 0.719976
vt 0.208982 0.753527
vt 0.206104 0.686359
vt 0.187285 0.685644
vt 0.183622 0.719292
vt 0.168696 0.682061
vt 0.160032 0.715064
vt 0.209858 0.769395
vt 0.240852 0.771074
vt 0.137130 0.707430
vt 0.115410 0.696564
vt 0.108204 0.708807
vt 0.130192 0.724369
vt 0.154780 0.736262
vt 0.180551 0.752459
vt 0.296199 0.690049
vt 0.314725 0.719032
vt 0.314888 0.717952
vt 0.314888 0.675364
vt 0.181207 0.753324
vt 0.297177 0.747067
vt 0.269959 0.761201
vt 0.220010 0.658678
vt 0.234245 0.655141
vt 0.205508 0.667703
vt 0.189133 0.669744
vt 0.173529 0.664593
vt 0.151043 0.675690
vt 0.150472 0.675842
vt 0.123757 0.682489
vt 0.106466 0.690416
vt 0.089484 0.697882
vt 0.269197 0.666297
vt 0.282773 0.670618
vt 0.251191 0.655393
vt 0.335781 0.682999
vt 0.334313 0.683614
vt 0.335227 0.686634
vt 0.336695 0.686019
vt 0.328371 0.754927
vt 0.326813 0.754607
vt 0.324812 0.756932
vt 0.325537 0.757730
vt 0.338112 0.691685
vt 0.336644 0.692300
vt 0.337914 0.695981
vt 0.339382 0.695366
vt 0.334386 0.680296
vt 0.332919 0.680911
vt 0.339404 0.703916
vt 0.337974 0.704324
vt 0.336539 0.711389
vt 0.338097 0.711710
vt 0.339634 0.697989
vt 0.338167 0.698604
vt 0.337974 0.704324
vt 0.339404 0.703916
vt 0.332535 0.677894
vt 0.331067 0.678509
vt 0.335631 0.741020
vt 0.334072 0.740699
vt 0.334047 0.740899
vt 0.335606 0.741220
vt 0.337400 0.688643
vt 0.335932 0.689258
vt 0.330093 0.673938
vt 0.328626 0.674553
vt 0.331067 0.678509
vt 0.332535 0.677894
vt 0.336367 0.734967
vt 0.334809 0.734646
vt 0.323666 0.668178
vt 0.322198 0.668793
vt 0.324836 0.671088
vt 0.326304 0.670473
vt 0.330046 0.673885
vt 0.328578 0.674500
vt 0.338097 0.711710
vt 0.336539 0.711389
vt 0.335980 0.717646
vt 0.337539 0.717966
vt 0.331222 0.750868
vt 0.329663 0.750547
vt 0.337630 0.723618
vt 0.336072 0.723297
vt 0.335533 0.728958
vt 0.337091 0.729279
vt 0.333733 0.746503
vt 0.332175 0.746182
vt 0.320757 0.666396
vt 0.319784 0.666862
vt 0.337539 0.717966
vt 0.335980 0.717646
vn -0.5904 -0.7040 0.3945
vn -0.6924 -0.5520 0.4646
vn -0.7699 -0.5528 0.3189
vn -0.6561 -0.7040 0.2717
vn -0.4654 -0.8286 0.3110
vn -0.5171 -0.8286 0.2142
vn -0.8173 -0.5528 0.1626
vn -0.6965 -0.7040 0.1385
vn -0.5490 -0.8286 0.1092
vn -0.8333 -0.5528 0.0000
vn -0.7101 -0.7040 0.0000
vn -0.5598 -0.8286 0.0000
vn -0.6965 -0.7040 -0.1385
vn -0.5490 -0.8286 -0.1092
vn -0.6561 -0.7040 -0.2717
vn -0.5171 -0.8286 -0.2142
vn -0.8643 -0.4714 0.1751
vn -0.8817 -0.4713 0.0219
vn -0.5904 -0.7040 -0.3945
vn -0.6468 -0.6344 -0.4233
vn -0.5480 -0.6344 -0.5452
vn -0.5021 -0.7040 -0.5021
vn -0.7188 -0.6343 -0.2844
vn -0.7634 -0.6341 -0.1230
vn -0.5009 -0.7038 0.5038
vn -0.5917 -0.6050 0.5327
vn -0.4486 -0.7020 0.5530
vn -0.7931 -0.6040 -0.0781
vn -0.7433 -0.4713 0.4747
vn -0.8167 -0.4714 0.3327
vn -0.4609 -0.8819 0.0990
vn -0.4383 -0.8819 0.1737
vn -0.4714 -0.8819 0.0081
vn -0.4624 -0.8819 -0.0915
vn -0.4405 -0.8818 -0.1681
vn -0.5282 -0.8007 -0.2823
vn -0.5417 -0.7727 -0.3308
vn -0.4743 -0.7725 -0.4222
vn -0.4913 -0.6326 -0.5987
vn -0.4646 -0.6810 -0.5661
vn -0.4522 -0.8111 0.3711
vn -0.4701 -0.7726 0.4266
vn -0.4070 -0.8816 0.2390
vn 0.5904 0.7040 -0.3945
vn 0.6561 0.7040 -0.2717
vn 0.7699 0.5528 -0.3189
vn 0.6924 0.5520 -0.4646
vn 0.4654 0.8286 -0.3110
vn 0.5171 0.8286 -0.2142
vn 0.6965 0.7040 -0.1385
vn 0.8173 0.5528 -0.1626
vn 0.5490 0.8286 -0.1092
vn 0.7101 0.7040 0.0000
vn 0.8333 0.5528 0.0000
vn 0.5598 0.8286 0.0000
vn 0.5490 0.8286 0.1092
vn 0.6965 0.7040 0.1385
vn 0.5171 0.8286 0.2142
vn 0.6561 0.7040 0.2717
vn 0.8817 0.4713 -0.0219
vn 0.8643 0.4714 -0.1751
vn 0.5904 0.7040 0.3945
vn 0.5083 0.7131 0.4827
vn 0.5598 0.6529 0.5102
vn 0.6468 0.6344 0.4233
vn 0.7188 0.6343 0.2844
vn 0.7634 0.6341 0.1230
vn 0.5036 0.7057 -0.4983
vn 0.5966 0.6042 -0.5282
vn 0.4595 0.6994 -0.5474
vn 0.7931 0.6040 0.0781
vn 0.7433 0.4713 -0.4747
vn 0.8167 0.4714 -0.3327
vn 0.4609 0.8819 -0.0990
vn 0.4383 0.8819 -0.1737
vn 0.4714 0.8819 -0.0081
vn 0.4624 0.8819 0.0915
vn 0.4405 0.8818 0.1681
vn 0.5282 0.8007 0.2823
vn 0.5417 0.7727 0.3308
vn 0.4743 0.7725 0.4222
vn 0.4786 0.7099 0.5167
vn 0.5184 0.6723 0.5284
vn 0.4522 0.8111 -0.3711
vn 0.4733 0.7725 -0.4234
vn 0.4070 0.8816 -0.2390
vn 0.7181 -0.6278 -0.3003
vn 0.7172 -0.6273 -0.3034
vn 0.7048 -0.6196 -0.3453
vn 0.6975 -0.6149 -0.3678
vn -0.6131 0.4318 -0.6615
vn -0.6342 0.4113 -0.6547
vn -0.6581 0.3869 -0.6459
vn 0.7415 -0.6079 0.2840
vn 0.7338 -0.5989 0.3205
vn 0.7002 -0.5623 0.4400
vn 0.6932 -0.5550 0.4598
vn 0.7626 -0.6375 0.1097
vn 0.7591 -0.6312 0.1593
vn 0.1131 0.1028 0.9883
vn 0.7989 -0.5343 0.2762
vn 0.8390 -0.4973 0.2206
vn 0.8951 -0.4281 0.1240
vn 0.7254 -0.5894 0.3554
vn -0.5721 0.4367 -0.6942
vn -0.5831 0.4472 -0.6782
vn -0.5596 0.4249 -0.7115
vn -0.5561 0.4217 -0.7161
vn 0.7574 -0.6467 -0.0894
vn 0.7597 -0.6470 -0.0645
vn 0.7068 -0.6209 -0.3388
vn 0.7145 -0.6256 -0.3132
vn 0.6839 -0.6060 -0.4061
vn -0.7334 0.5984 -0.3225
vn -0.7382 0.6040 -0.3004
vn 0.7315 -0.5352 -0.4224
vn 0.7799 -0.4621 -0.4222
vn 0.7029 -0.6184 -0.3515
vn 0.7193 -0.6285 -0.2960
vn 0.7340 -0.6369 -0.2358
vn 0.7349 -0.6373 -0.2317
vn -0.3762 0.3757 0.8469
vn -0.6460 0.5076 -0.5701
vn -0.6260 0.4882 -0.6081
vn -0.6975 0.6149 0.3679
vn -0.6915 0.6111 0.3851
vn -0.7545 0.6460 0.1153
vn -0.7571 0.6467 0.0923
vn -0.6557 0.5172 -0.5500
vn -0.6609 0.5224 -0.5388
vn 0.8263 -0.3772 -0.4182
vn -0.6634 0.5922 0.4574
s 1
f 3/1/1 2/2/2 5/3/3 6/4/4
f 4/5/5 3/1/1 6/4/4 7/6/6
f 6/4/4 5/3/3 8/7/7 9/8/8
f 7/6/6 6/4/4 9/8/8 10/9/9
f 9/8/8 8/7/7 11/10/10 12/11/11
f 10/9/9 9/8/8 12/11/11 13/12/12
f 13/12/12 12/11/11 14/13/13 15/14/14
f 14/13/13 16/15/15 17/16/16 15/14/14
f 8/7/7 92/17/17 91/18/18 11/10/10
f 18/19/19 93/20/20 94/21/21 19/22/22
f 16/15/15 95/23/23 93/20/20 18/19/19
f 14/13/13 96/24/24 95/23/23 16/15/15
f 1/25/25 87/26/26 2/2/2 3/1/1
f 87/26/26 1/25/25 97/27/27
f 12/11/11 11/10/10 99/28/28 96/24/24 14/13/13
f 11/10/10 91/18/18 99/28/28
f 87/29/26 89/30/29 2/2/2
f 5/3/3 104/31/30 92/17/17 8/7/7
f 2/2/2 89/30/29 104/31/30 5/3/3
f 107/32/31 108/33/32 7/6/6 10/9/9
f 109/34/33 107/32/31 10/9/9 13/12/12
f 110/35/34 109/34/33 13/12/12 15/14/14
f 111/36/35 110/35/34 15/14/14 17/16/16
f 113/37/36 111/36/35 17/16/16
f 17/16/16 16/15/15 18/19/19 114/38/37 113/37/36
f 114/38/37 18/19/19 19/22/22 115/39/38
f 19/22/22 94/21/21 105/40/39 116/41/40
f 117/42/41 118/43/42 1/25/25 3/1/1 4/5/5
f 119/44/43 117/42/41 4/5/5
f 118/43/42 97/45/27 1/25/25
f 108/33/32 119/44/43 4/5/5 7/6/6
f 116/41/40 115/39/38 19/22/22
f 45/46/44 49/47/45 48/48/46 44/49/47
f 46/50/48 50/51/49 49/47/45 45/46/44
f 49/47/45 52/52/50 51/53/51 48/48/46
f 50/51/49 53/54/52 52/52/50 49/47/45
f 52/52/50 55/55/53 54/56/54 51/53/51
f 53/54/52 56/57/55 55/55/53 52/52/50
f 56/57/55 58/58/56 57/59/57 55/55/53
f 57/59/57 58/58/56 60/60/58 59/61/59
f 51/53/51 54/56/54 120/62/60 121/63/61
f 61/64/62 62/65/63 123/66/64 122/67/65
f 59/61/59 61/64/62 122/67/65 124/68/66
f 57/59/57 59/61/59 124/68/66 125/69/67
f 47/70/68 45/46/44 44/49/47 100/71/69
f 100/72/69 126/73/70 47/70/68
f 55/55/53 57/59/57 125/69/67 128/74/71 54/56/54
f 54/56/54 128/74/71 120/62/60
f 100/71/69 44/49/47 102/75/72
f 48/48/46 51/53/51 121/63/61 129/76/73
f 44/49/47 48/48/46 129/76/73 102/75/72
f 132/77/74 53/54/52 50/51/49 133/78/75
f 134/79/76 56/57/55 53/54/52 132/77/74
f 135/80/77 58/58/56 56/57/55 134/79/76
f 136/81/78 60/60/58 58/58/56 135/80/77
f 138/82/79 60/60/58 136/81/78
f 60/60/58 138/82/79 139/83/80 61/64/62 59/61/59
f 139/83/80 140/84/81 62/65/63 61/64/62
f 62/65/63 141/85/82 130/86/83 123/66/64
f 142/87/84 46/50/48 45/46/44 47/70/68 143/88/85
f 144/89/86 46/50/48 142/87/84
f 143/88/85 47/70/68 126/73/70
f 133/78/75 50/51/49 46/50/48 144/89/86
f 141/85/82 62/65/63 140/84/81
f 33/90/87 76/91/88 75/92/89 32/93/90
f 21/94/91 64/95/92 131/96/93 106/97/93
f 42/98/94 85/99/95 84/100/96 41/101/97
f 34/102/98 77/103/99 76/91/88 33/90/87
f 98/104/100 127/105/100 101/106/100 88/107/100
f 40/108/101 83/109/102 66/110/103 23/111/103
f 112/112/104 137/113/104 77/103/99 34/102/98
f 27/114/105 70/115/106 69/116/107 26/117/108
f 31/118/109 74/119/110 85/99/95 42/98/94
f 37/120/111 80/121/112 78/122/113 35/123/113
f 20/124/114 63/125/115 70/115/106 27/114/105
f 38/126/116 81/127/117 86/128/118 43/129/119
f 36/130/120 79/131/121 80/121/112 37/120/111
f 25/132/122 68/133/122 103/134/122 90/135/122
f 22/136/123 65/137/124 64/95/92 21/94/91
f 43/129/119 86/128/118 79/131/121 36/130/120
f 30/138/125 73/139/126 72/140/127 29/141/128
f 24/142/129 67/143/130 65/137/124 22/136/123
f 39/144/131 82/145/131 81/127/117 38/126/116
f 28/146/132 71/147/132 73/139/126 30/138/125
f 32/93/90 75/92/89 74/119/110 31/118/109
f 26/117/108 69/116/107 67/143/130 24/142/129
f 41/101/97 84/100/96 83/109/102 40/108/101
f 29/141/128 72/140/127 63/125/115 20/124/114
