# Blender v2.92.0 OBJ File: 'pallo final.blend'
# www.blender.org
o Pala_.019_Sphere.022
v 0.928781 -0.199967 -0.384713
v 0.874892 -0.392250 -0.362392
v 0.787382 -0.569459 -0.326144
v 1.005305 0.000000 -0.199967
v 0.985988 -0.199967 -0.196125
v 0.928781 -0.392250 -0.184746
v 0.835881 -0.569459 -0.166267
v 1.005305 -0.199967 0.000000
v 0.946977 -0.392250 0.000000
v 0.758038 -0.666169 -0.150783
v 0.732399 -0.641977 -0.303369
v 1.024508 0.000000 -0.004999
v 0.763201 -0.569459 -0.371385
v 0.990021 -0.199967 0.155179
v 0.740209 -0.498393 -0.494592
v 0.884436 -0.509255 0.000000
v 0.845591 -0.569459 -0.067671
v 0.934459 -0.392250 0.127092
v 0.718875 -0.721970 -0.083449
v 0.971558 -0.249730 0.189371
v 0.986039 0.000000 -0.263479
v 1.001863 0.035628 -0.199283
v 0.735274 -0.453719 -0.538064
v 0.784330 -0.399118 -0.524072
v 0.934738 -0.134503 -0.387181
v 0.872875 -0.199967 -0.489305
v 1.016940 0.055858 -0.025979
v 0.868810 -0.178747 -0.371433
v 0.814922 -0.371030 -0.349112
v 0.926018 -0.178747 -0.182845
v 0.868810 -0.371030 -0.171466
v 0.775910 -0.548239 -0.152987
v 0.727412 -0.548239 -0.312864
v 0.945335 -0.178747 0.013280
v 0.887006 -0.371030 0.013280
v 0.698068 -0.644948 -0.137503
v 0.672428 -0.620757 -0.290089
v 0.964538 0.021220 0.008281
v 0.703230 -0.548239 -0.358105
v 0.930051 -0.178747 0.168459
v 0.824466 -0.488035 0.013280
v 0.785621 -0.548239 -0.054391
v 0.874489 -0.371030 0.140372
v 0.658905 -0.700750 -0.070169
v 0.945335 0.021220 -0.186687
v 0.926069 0.021220 -0.250199
v 0.680239 -0.477173 -0.481312
v 0.911588 -0.228509 0.202651
v 0.941893 0.056848 -0.186003
v 0.675304 -0.432499 -0.524785
v 0.724360 -0.377898 -0.510792
v 0.956969 0.077079 -0.012699
v 0.874767 -0.113283 -0.373901
v 0.812905 -0.178747 -0.476025
v 0.758038 -0.666169 -0.150783
v 0.758038 -0.666169 -0.150783
v 0.732399 -0.641977 -0.303369
v 0.732399 -0.641977 -0.303369
v 0.845591 -0.569459 -0.067671
v 0.845591 -0.569459 -0.067671
v 0.718875 -0.721970 -0.083449
v 0.718875 -0.721970 -0.083449
v 0.763201 -0.569459 -0.371385
v 0.740209 -0.498393 -0.494592
v 0.934459 -0.392250 0.127092
v 0.884436 -0.509255 0.000000
v 0.990021 -0.199967 0.155179
v 0.971558 -0.249730 0.189371
v 0.971558 -0.249730 0.189371
v 1.024508 0.000000 -0.004999
v 0.735274 -0.453719 -0.538064
v 0.735274 -0.453719 -0.538064
v 1.016940 0.055858 -0.025979
v 1.016940 0.055858 -0.025979
v 0.934738 -0.134503 -0.387181
v 0.986039 0.000000 -0.263479
v 1.001863 0.035628 -0.199283
v 0.784330 -0.399118 -0.524072
v 0.872875 -0.199967 -0.489305
v 0.872875 -0.199967 -0.489305
v 0.698068 -0.644948 -0.137503
v 0.698068 -0.644948 -0.137503
v 0.672428 -0.620757 -0.290089
v 0.672428 -0.620757 -0.290089
v 0.785621 -0.548239 -0.054391
v 0.785621 -0.548239 -0.054391
v 0.658905 -0.700750 -0.070169
v 0.658905 -0.700750 -0.070169
v 0.703230 -0.548239 -0.358105
v 0.680239 -0.477173 -0.481312
v 0.874489 -0.371030 0.140372
v 0.824466 -0.488035 0.013280
v 0.930051 -0.178747 0.168459
v 0.911588 -0.228509 0.202651
v 0.911588 -0.228509 0.202651
v 0.964538 0.021220 0.008281
v 0.675304 -0.432499 -0.524785
v 0.675304 -0.432499 -0.524785
v 0.956969 0.077079 -0.012699
v 0.956969 0.077079 -0.012699
v 0.874767 -0.113283 -0.373901
v 0.926069 0.021220 -0.250199
v 0.941893 0.056848 -0.186003
v 0.724360 -0.377898 -0.510792
v 0.812905 -0.178747 -0.476025
v 0.812905 -0.178747 -0.476025
vt 0.867678 0.467964
vt 0.867511 0.452052
vt 0.899335 0.451719
vt 0.899502 0.467631
vt 0.867345 0.436140
vt 0.899168 0.435807
vt 0.931325 0.467298
vt 0.931159 0.451386
vt 0.931060 0.441950
vt 0.962338 0.444514
vt 0.950973 0.451178
vt 0.946183 0.467142
vt 0.931377 0.472183
vt 0.835687 0.452385
vt 0.836316 0.436465
vt 0.899054 0.424861
vt 0.920181 0.435587
vt 0.867213 0.423550
vt 0.875417 0.420458
vt 0.857259 0.468073
vt 0.835742 0.457641
vt 0.830017 0.452444
vt 0.918729 0.483343
vt 0.899657 0.482513
vt 0.910742 0.486777
vt 0.900901 0.483530
vt 0.867778 0.477539
vt 0.826653 0.438668
vt 0.835525 0.436871
vt 0.867678 0.467964
vt 0.899502 0.467631
vt 0.899335 0.451719
vt 0.867511 0.452052
vt 0.899168 0.435807
vt 0.867345 0.436140
vt 0.931325 0.467298
vt 0.931159 0.451386
vt 0.931060 0.441950
vt 0.950973 0.451178
vt 0.962338 0.444514
vt 0.946183 0.467142
vt 0.931377 0.472183
vt 0.836316 0.436465
vt 0.835687 0.452385
vt 0.899054 0.424861
vt 0.920181 0.435587
vt 0.867213 0.423550
vt 0.875417 0.420458
vt 0.857259 0.468073
vt 0.835742 0.457641
vt 0.830017 0.452444
vt 0.899657 0.482513
vt 0.918729 0.483343
vt 0.900901 0.483530
vt 0.910742 0.486777
vt 0.867778 0.477539
vt 0.835525 0.436871
vt 0.826653 0.438668
vt 0.906669 0.403904
vt 0.906772 0.409130
vt 0.921134 0.407397
vt 0.921031 0.402170
vt 0.794303 0.408364
vt 0.794406 0.413591
vt 0.800042 0.411502
vt 0.799939 0.406275
vt 0.983747 0.403791
vt 0.983851 0.409018
vt 0.988828 0.409745
vt 0.988724 0.404518
vt 0.929062 0.407430
vt 0.928959 0.402203
vt 0.951432 0.404352
vt 0.951535 0.409578
vt 0.964130 0.409360
vt 0.964027 0.404133
vt 0.888956 0.405642
vt 0.889059 0.410869
vt 0.894111 0.411394
vt 0.894007 0.406168
vt 0.928959 0.402203
vt 0.929062 0.407430
vt 0.944313 0.412270
vt 0.944209 0.407044
vt 0.863665 0.407887
vt 0.863768 0.413113
vt 0.868269 0.411339
vt 0.868166 0.406113
vt 0.894007 0.406168
vt 0.894111 0.411394
vt 0.944209 0.407044
vt 0.944313 0.412270
vt 0.951535 0.409578
vt 0.951432 0.404352
vt 0.817656 0.405154
vt 0.817760 0.410381
vt 0.828622 0.408972
vt 0.828519 0.403745
vt 0.964027 0.404133
vt 0.964130 0.409360
vt 0.972336 0.407697
vt 0.972233 0.402471
vt 0.817760 0.410381
vt 0.817656 0.405154
vt 0.843820 0.410430
vt 0.843717 0.405203
vt 0.849718 0.405901
vt 0.849821 0.411127
vt 0.863768 0.413113
vt 0.863665 0.407887
vn 0.9057 -0.1946 -0.3764
vn 0.9622 -0.1939 -0.1914
vn 0.9070 -0.3805 -0.1804
vn 0.8540 -0.3800 -0.3552
vn 0.9812 -0.1927 0.0008
vn 0.9247 -0.3805 0.0000
vn 0.7699 -0.5528 -0.3189
vn 0.8173 -0.5528 -0.1626
vn 0.8419 -0.5332 -0.0829
vn 0.7708 -0.6326 -0.0759
vn 0.7620 -0.6342 -0.1307
vn 0.7299 -0.6338 -0.2561
vn 0.7525 -0.5214 -0.4022
vn 0.9808 0.0000 -0.1951
vn 0.9977 -0.0285 -0.0612
vn 0.9343 -0.3443 0.0920
vn 0.8811 -0.4709 -0.0436
vn 0.9678 -0.2329 0.0953
vn 0.9527 -0.2890 0.0938
vn 0.9330 -0.0979 -0.3462
vn 0.9550 -0.0637 -0.2897
vn 0.9800 0.0980 -0.1729
vn 0.7582 -0.4709 -0.4510
vn 0.7903 -0.4080 -0.4571
vn 0.6825 -0.4696 -0.5601
vn 0.8516 -0.2518 -0.4596
vn 0.9904 0.0975 -0.0975
vn -0.9057 0.1946 0.3764
vn -0.8540 0.3800 0.3552
vn -0.9070 0.3805 0.1804
vn -0.9622 0.1939 0.1914
vn -0.9247 0.3805 0.0000
vn -0.9812 0.1927 -0.0008
vn -0.7699 0.5528 0.3189
vn -0.8173 0.5528 0.1626
vn -0.8419 0.5332 0.0829
vn -0.7620 0.6342 0.1307
vn -0.7708 0.6326 0.0759
vn -0.7299 0.6338 0.2561
vn -0.7525 0.5214 0.4022
vn -0.9977 0.0285 0.0612
vn -0.9808 0.0000 0.1951
vn -0.9343 0.3443 -0.0920
vn -0.8811 0.4709 0.0436
vn -0.9678 0.2329 -0.0953
vn -0.9527 0.2890 -0.0938
vn -0.9330 0.0979 0.3462
vn -0.9550 0.0637 0.2897
vn -0.9800 -0.0980 0.1729
vn -0.7903 0.4080 0.4571
vn -0.7582 0.4709 0.4510
vn -0.6825 0.4696 0.5601
vn -0.8516 0.2518 0.4596
vn -0.9904 -0.0975 0.0975
vn -0.0283 -0.5866 0.8094
vn -0.0154 -0.5614 0.8274
vn -0.0988 -0.7134 0.6937
vn -0.0988 -0.7135 0.6936
vn -0.0934 0.3251 -0.9411
vn -0.1112 0.2821 -0.9529
vn -0.1160 0.2702 -0.9558
vn -0.3850 -0.7635 -0.5184
vn -0.3845 -0.7479 -0.5411
vn -0.3781 -0.6667 -0.6422
vn -0.0994 -0.7144 0.6926
vn -0.3497 -0.9326 -0.0891
vn 0.3515 0.4969 0.7934
vn 0.3507 0.4930 0.7961
vn 0.3405 0.4434 0.8291
vn 0.1381 -0.2148 0.9668
vn 0.3239 0.3708 0.8704
vn 0.3422 0.4512 0.8242
vn 0.3464 0.4714 0.8110
vn 0.0556 -0.4119 0.9095
vn -0.3692 -0.5986 -0.7108
vn 0.1475 0.7896 -0.5955
vn 0.1085 0.7294 -0.6754
vn 0.1087 0.7297 -0.6751
vn -0.3616 -0.5515 -0.7517
vn -0.3819 -0.7060 -0.5964
vn -0.3822 -0.7103 -0.5911
vn -0.1331 0.2275 -0.9646
vn 0.1324 0.7671 -0.6278
vn 0.1231 0.7526 -0.6468
vn 0.2430 0.9051 -0.3489
vn 0.2545 0.9151 -0.3128
vn 0.3034 0.9430 -0.1365
s 1
f 1/1/1 5/2/2 6/3/3 2/4/4
f 6/3/3 5/2/2 8/5/5 9/6/6
f 3/7/7 2/4/4 6/3/3 7/8/8
f 59/9/9 61/10/10 55/11/11 7/8/8
f 55/11/11 57/12/12 3/7/7 7/8/8
f 57/12/12 63/13/13 3/7/7
f 8/5/5 5/2/2 4/14/14 70/15/15
f 65/16/16 66/17/17 9/6/6
f 7/8/8 6/3/3 9/6/6 66/17/17 59/9/9
f 67/18/18 68/19/19 65/16/16
f 67/18/18 8/5/5 70/15/15
f 75/20/20 76/21/21 4/14/14 5/2/2 1/1/1
f 65/16/16 9/6/6 8/5/5 67/18/18
f 76/21/21 77/22/22 4/14/14
f 3/7/7 63/13/13 64/23/23 78/24/24 2/4/4
f 64/23/23 71/25/25 78/26/24
f 79/27/26 75/20/20 1/1/1
f 79/27/26 1/1/1 2/4/4 78/24/24
f 4/14/14 77/22/22 73/28/27 70/29/15
f 28/30/28 29/31/29 31/32/30 30/33/31
f 31/32/30 35/34/32 34/35/33 30/33/31
f 33/36/34 32/37/35 31/32/30 29/31/29
f 85/38/36 32/37/35 81/39/37 87/40/38
f 81/39/37 32/37/35 33/36/34 83/41/39
f 83/41/39 33/36/34 89/42/40
f 34/35/33 96/43/41 45/44/42 30/33/31
f 91/45/43 35/34/32 92/46/44
f 32/37/35 85/38/36 92/46/44 35/34/32 31/32/30
f 93/47/45 91/45/43 94/48/46
f 93/47/45 96/43/41 34/35/33
f 101/49/47 28/30/28 30/33/31 45/44/42 102/50/48
f 91/45/43 93/47/45 34/35/33 35/34/32
f 102/50/48 45/44/42 103/51/49
f 33/36/34 29/31/29 104/52/50 90/53/51 89/42/40
f 90/53/51 104/54/50 97/55/52
f 105/56/53 28/30/28 101/49/47
f 105/56/53 104/52/50 29/31/29 28/30/28
f 45/44/42 96/57/41 99/58/54 103/51/49
f 18/59/55 43/60/56 41/61/57 16/62/58
f 72/63/59 98/64/59 51/65/60 24/66/61
f 15/67/62 47/68/63 50/69/64 23/70/64
f 16/62/58 41/61/57 86/71/65 60/72/65
f 56/73/66 82/74/66 84/75/66 58/76/66
f 14/77/67 40/78/68 95/79/69 69/80/69
f 17/81/70 42/82/70 88/83/70 62/84/70
f 74/85/71 100/86/71 38/87/72 12/88/73
f 20/89/74 48/90/74 43/60/56 18/59/55
f 19/91/75 44/92/75 36/93/75 10/94/75
f 12/88/73 38/87/72 40/78/68 14/77/67
f 80/95/76 106/96/76 53/97/77 25/98/78
f 11/99/79 37/100/79 39/101/80 13/102/81
f 24/66/61 51/65/60 54/103/82 26/104/82
f 25/98/78 53/97/77 46/105/83 21/106/84
f 22/107/85 49/108/86 52/109/87 27/110/87
f 13/102/81 39/101/80 47/68/63 15/67/62
f 21/106/84 46/105/83 49/108/86 22/107/85
