# Blender v2.92.0 OBJ File: 'pallo final.blend'
# www.blender.org
o Pala_.014_Sphere.017
v 0.000000 -0.199967 -1.005305
v -0.526112 -0.392250 -0.787382
v -0.473488 -0.569459 -0.708625
v -0.384713 -0.199967 -0.928780
v -0.362392 -0.392250 -0.874892
v -0.326144 -0.569459 -0.787382
v -0.196125 -0.199967 -0.985987
v -0.184746 -0.392250 -0.928780
v 0.000000 -0.392250 -0.946976
v 0.192418 -0.262606 -0.967352
v 0.137180 -0.199967 -0.991794
v 0.000000 -0.056546 -1.019431
v -0.541260 -0.569459 -0.653006
v -0.621251 -0.392250 -0.709303
v -0.388634 -0.095927 -0.938247
v -0.197891 -0.108063 -0.994865
v -0.476973 -0.199967 -0.879466
v -0.542564 -0.294629 -0.812004
v -0.423161 -0.679839 -0.633306
v 0.178594 -0.392250 -0.929387
v 0.000000 -0.469689 -0.905584
v -0.050761 -0.533564 -0.866442
v -0.174491 -0.569459 -0.833385
v -0.306822 -0.630984 -0.740733
v 0.211321 -0.322263 -0.941022
v -0.348218 -0.369051 -0.820476
v -0.311970 -0.546260 -0.732966
v -0.511938 -0.369051 -0.732966
v -0.459314 -0.546260 -0.654209
v -0.370539 -0.176768 -0.874364
v -0.181951 -0.176768 -0.931572
v -0.170572 -0.369051 -0.874365
v -0.160317 -0.546260 -0.778970
v -0.292648 -0.607784 -0.686318
v 0.014174 -0.369051 -0.892561
v 0.014174 -0.176768 -0.950890
v 0.151354 -0.176768 -0.937379
v 0.014174 -0.033346 -0.965015
v -0.527086 -0.546260 -0.598590
v -0.607078 -0.369051 -0.654887
v -0.374461 -0.072728 -0.883832
v -0.183717 -0.084864 -0.940450
v -0.462799 -0.176768 -0.825051
v -0.528390 -0.271430 -0.757589
v -0.408988 -0.656639 -0.578890
v 0.206592 -0.239407 -0.912937
v 0.225494 -0.299064 -0.886607
v 0.192768 -0.369051 -0.874971
v 0.014174 -0.446489 -0.851169
v -0.036587 -0.510365 -0.812027
v -0.174491 -0.569459 -0.833385
v -0.306822 -0.630984 -0.740733
v 0.000000 -0.056546 -1.019431
v 0.000000 -0.056546 -1.019431
v 0.137180 -0.199967 -0.991794
v -0.197891 -0.108063 -0.994865
v -0.541260 -0.569459 -0.653006
v -0.621251 -0.392250 -0.709303
v -0.621251 -0.392250 -0.709303
v -0.476973 -0.199967 -0.879466
v -0.388634 -0.095927 -0.938247
v -0.388634 -0.095927 -0.938247
v -0.542564 -0.294629 -0.812004
v 0.192418 -0.262606 -0.967352
v 0.211321 -0.322263 -0.941022
v 0.211321 -0.322263 -0.941022
v 0.178594 -0.392250 -0.929387
v 0.178594 -0.392250 -0.929387
v 0.000000 -0.469689 -0.905584
v -0.050761 -0.533564 -0.866442
v -0.050761 -0.533564 -0.866442
v -0.423161 -0.679839 -0.633306
v -0.423161 -0.679839 -0.633306
v -0.160317 -0.546260 -0.778970
v -0.292648 -0.607784 -0.686318
v 0.014174 -0.033346 -0.965015
v 0.014174 -0.033346 -0.965015
v 0.151354 -0.176768 -0.937379
v -0.183717 -0.084864 -0.940450
v -0.527086 -0.546260 -0.598590
v -0.607078 -0.369051 -0.654887
v -0.607078 -0.369051 -0.654887
v -0.408988 -0.656639 -0.578890
v -0.408988 -0.656639 -0.578890
v -0.462799 -0.176768 -0.825051
v -0.374461 -0.072728 -0.883832
v -0.374461 -0.072728 -0.883832
v -0.528390 -0.271430 -0.757589
v 0.206592 -0.239407 -0.912937
v 0.225494 -0.299064 -0.886607
v 0.225494 -0.299064 -0.886607
v 0.192768 -0.369051 -0.874971
v 0.192768 -0.369051 -0.874971
v 0.014174 -0.446489 -0.851169
v -0.036587 -0.510365 -0.812027
v -0.036587 -0.510365 -0.812027
vt 0.389154 0.558642
vt 0.351686 0.544029
vt 0.367195 0.507680
vt 0.403561 0.524535
vt 0.384643 0.472267
vt 0.420196 0.491280
vt 0.377232 0.593821
vt 0.426756 0.572908
vt 0.416158 0.604895
vt 0.358840 0.458659
vt 0.398283 0.447841
vt 0.350127 0.499840
vt 0.444147 0.612657
vt 0.412235 0.622303
vt 0.371129 0.617974
vt 0.344334 0.563938
vt 0.332010 0.536247
vt 0.357389 0.587917
vt 0.438617 0.460046
vt 0.438617 0.460046
vt 0.429333 0.447055
vt 0.415721 0.444363
vt 0.398283 0.447841
vt 0.435793 0.499841
vt 0.444147 0.516374
vt 0.439751 0.543382
vt 0.441898 0.578748
vt 0.389154 0.558642
vt 0.403561 0.524535
vt 0.367195 0.507680
vt 0.351686 0.544029
vt 0.420196 0.491280
vt 0.384643 0.472267
vt 0.377232 0.593821
vt 0.416158 0.604895
vt 0.426756 0.572908
vt 0.358840 0.458659
vt 0.350127 0.499840
vt 0.435778 0.615730
vt 0.412235 0.622303
vt 0.371129 0.617974
vt 0.344334 0.563938
vt 0.332010 0.536247
vt 0.357389 0.587917
vt 0.435793 0.499841
vt 0.444147 0.516374
vt 0.439751 0.543382
vt 0.441898 0.578748
vt 0.444147 0.612657
vt 0.319366 0.529923
vt 0.324534 0.529980
vt 0.325536 0.522655
vt 0.320368 0.522598
vt 0.315047 0.593524
vt 0.320215 0.593581
vt 0.321006 0.580980
vt 0.315838 0.580923
vt 0.314837 0.486661
vt 0.320005 0.486718
vt 0.319028 0.475459
vt 0.313860 0.475403
vt 0.320873 0.516852
vt 0.326041 0.516909
vt 0.324079 0.510567
vt 0.318911 0.510510
vt 0.315684 0.604846
vt 0.320852 0.604903
vt 0.316447 0.460945
vt 0.321615 0.461002
vt 0.326041 0.447635
vt 0.320873 0.447579
vt 0.315838 0.580923
vt 0.321006 0.580980
vt 0.320271 0.564059
vt 0.315103 0.564002
vt 0.314852 0.494350
vt 0.320020 0.494406
vt 0.320005 0.486718
vt 0.314837 0.486661
vt 0.318622 0.618300
vt 0.323789 0.618357
vt 0.319010 0.546945
vt 0.324178 0.547002
vt 0.326041 0.516909
vt 0.320873 0.516852
vt 0.324178 0.547002
vt 0.319010 0.546945
vt 0.318553 0.635498
vt 0.323721 0.635554
vt 0.323789 0.618357
vt 0.318622 0.618300
vt 0.318911 0.510510
vt 0.324079 0.510567
vt 0.320873 0.447579
vt 0.326041 0.447635
vt 0.325934 0.433800
vt 0.320766 0.433743
vt 0.415721 0.444363
vt 0.429333 0.447055
vn -0.3539 -0.3805 -0.8544
vn -0.3754 -0.1939 -0.9063
vn -0.1914 -0.1939 -0.9622
vn -0.1802 -0.3812 -0.9067
vn 0.0000 -0.1939 -0.9810
vn 0.0000 -0.3805 -0.9247
vn -0.5137 -0.3805 -0.7689
vn -0.3189 -0.5528 -0.7699
vn -0.4630 -0.5528 -0.6929
vn -0.0260 -0.0980 -0.9948
vn 0.1059 -0.2409 -0.9647
vn -0.1888 -0.0980 -0.9771
vn -0.4057 -0.6341 -0.6582
vn -0.5360 -0.5348 -0.6532
vn -0.5776 -0.4134 -0.7038
vn -0.4574 -0.2415 -0.8558
vn -0.3521 -0.0980 -0.9308
vn -0.4945 -0.2900 -0.8194
vn 0.1108 -0.3253 -0.9391
vn -0.1108 0.3253 0.9391
vn -0.1617 0.2932 0.9423
vn -0.1059 0.2409 0.9647
vn -0.0326 -0.4711 -0.8814
vn -0.0908 -0.4727 -0.8765
vn -0.1933 -0.4976 -0.8456
vn -0.3150 -0.6342 -0.7060
vn 0.3539 0.3805 0.8544
vn 0.1802 0.3812 0.9067
vn 0.1914 0.1939 0.9622
vn 0.3754 0.1939 0.9063
vn 0.0000 0.3805 0.9247
vn 0.0000 0.1939 0.9810
vn 0.5137 0.3805 0.7689
vn 0.4630 0.5528 0.6929
vn 0.3189 0.5528 0.7699
vn 0.0260 0.0980 0.9948
vn 0.1888 0.0980 0.9771
vn 0.4057 0.6341 0.6582
vn 0.5360 0.5348 0.6532
vn 0.5776 0.4134 0.7038
vn 0.4574 0.2415 0.8558
vn 0.3521 0.0980 0.9308
vn 0.4945 0.2900 0.8194
vn 0.0326 0.4711 0.8814
vn 0.0908 0.4727 0.8765
vn 0.1933 0.4976 0.8456
vn 0.3150 0.6342 0.7060
vn 0.7244 0.5456 -0.4213
vn 0.7271 0.5425 -0.4207
vn 0.8705 0.3282 -0.3666
vn 0.8588 0.3509 -0.3733
vn -0.8044 0.5925 -0.0431
vn -0.8046 0.5922 -0.0429
vn -0.7782 0.6248 -0.0637
vn 0.3378 -0.8943 0.2933
vn 0.4386 -0.8622 0.2533
vn 0.4343 -0.8638 0.2551
vn 0.9013 -0.4300 -0.0514
vn -0.8166 0.5762 -0.0329
vn -0.8140 0.5798 -0.0352
vn 0.5327 -0.8196 0.2107
vn 0.5336 -0.8191 0.2102
vn 0.5363 -0.8177 0.2089
vn -0.0539 0.9235 -0.3797
vn -0.1711 0.9216 -0.3483
vn -0.1596 0.9224 -0.3517
vn 0.6442 -0.7496 0.1518
vn 0.6099 -0.7738 0.1710
vn 0.7965 -0.6026 0.0494
vn -0.8008 0.5971 -0.0460
vn 0.6929 0.5803 -0.4279
vn 0.9367 0.1592 -0.3118
vn -0.2756 0.9081 -0.3153
vn -0.7891 -0.4634 0.4031
vn -0.7871 -0.4662 0.4038
vn -0.8892 -0.2887 0.3547
vn 0.4131 -0.8716 0.2640
vn -0.6526 -0.6207 0.4346
vn 0.1617 -0.2932 -0.9423
s 1
f 5/1/1 4/2/2 7/3/3 8/4/4
f 8/4/4 7/3/3 1/5/5 9/6/6
f 2/7/7 5/1/1 6/8/8 3/9/9
f 1/5/5 53/10/10 55/11/11
f 7/3/3 56/12/12 53/10/10 1/5/5
f 72/13/13 57/14/14 3/9/9
f 57/14/14 58/15/15 2/7/7 3/9/9
f 60/16/16 61/17/17 4/2/2
f 4/2/2 61/17/17 56/12/12 7/3/3
f 2/7/7 63/18/18 60/16/16
f 58/15/15 63/18/18 2/7/7
f 9/6/6 1/5/5 55/11/11 67/19/19
f 92/20/20 90/21/21 89/22/21 78/23/22
f 67/19/19 69/24/23 9/6/6
f 69/24/23 70/25/24 8/4/4 9/6/6
f 6/8/8 5/1/1 8/4/4 51/26/25
f 8/4/4 70/25/24 51/26/25
f 52/27/26 72/13/13 3/9/9 6/8/8
f 51/26/25 52/27/26 6/8/8
f 26/28/27 32/29/28 31/30/29 30/31/30
f 32/29/28 35/32/31 36/33/32 31/30/29
f 28/34/33 29/35/34 27/36/35 26/28/27
f 36/33/32 78/23/22 76/37/36
f 31/30/29 36/33/32 76/37/36 79/38/37
f 83/39/38 29/35/34 80/40/39
f 80/40/39 29/35/34 28/34/33 81/41/40
f 85/42/41 30/31/30 86/43/42
f 30/31/30 31/30/29 79/38/37 86/43/42
f 28/34/33 85/42/41 88/44/43
f 81/41/40 28/34/33 88/44/43
f 35/32/31 92/20/20 78/23/22 36/33/32
f 92/20/20 35/32/31 94/45/44
f 94/45/44 35/32/31 32/29/28 95/46/45
f 27/36/35 74/47/46 32/29/28 26/28/27
f 32/29/28 74/47/46 95/46/45
f 75/48/47 27/36/35 29/35/34 83/49/38
f 74/47/46 27/36/35 75/48/47
f 11/50/48 37/51/49 46/52/50 64/53/51
f 17/54/52 43/55/53 87/56/54 62/57/54
f 71/58/55 96/59/55 33/60/56 23/61/57
f 66/62/58 91/63/58 93/64/58 68/65/58
f 18/66/59 44/67/60 43/55/53 17/54/52
f 24/68/61 34/69/62 84/70/63 73/71/63
f 15/72/64 41/73/64 42/74/65 16/75/66
f 21/76/67 49/77/68 50/78/69 22/79/69
f 59/80/70 82/81/70 44/67/60 18/66/59
f 54/82/71 77/83/71 37/51/49 11/50/48
f 64/53/51 46/52/50 47/84/72 65/85/72
f 23/61/57 33/60/56 34/69/62 24/68/61
f 16/75/66 42/74/65 38/86/73 12/87/73
f 13/88/74 39/89/75 40/90/76 14/91/76
f 20/92/77 48/93/77 49/77/68 21/76/67
f 19/94/78 45/95/78 39/96/75 13/97/74
f 55/11/11 10/98/79 25/99/79 67/19/19
f 60/16/16 4/2/2 5/1/1 2/7/7
f 85/42/41 28/34/33 26/28/27 30/31/30
