# Blender v2.92.0 OBJ File: 'pallo final.blend'
# www.blender.org
o Pala_.007_Sphere.010
v -0.558517 -0.199967 0.835880
v -0.473488 -0.569459 0.708625
v -0.710858 -0.199967 0.710858
v -0.669613 -0.392250 0.669614
v -0.835880 -0.199967 0.558517
v -0.787382 -0.392250 0.526112
v -0.928780 -0.199967 0.384714
v -0.874892 -0.392250 0.362393
v -0.928781 -0.392250 0.184746
v -0.984558 -0.199967 0.200840
v -0.404439 -0.720901 0.605286
v -0.604311 -0.565029 0.604311
v -0.747117 -0.482850 0.499208
v -0.939623 -0.392250 0.074660
v -0.516876 -0.199967 0.858138
v -0.539470 -0.312987 0.807374
v -0.491678 -0.508206 0.735848
v -0.412455 -0.569459 0.741248
v -0.599375 -0.392250 0.727257
v -0.895954 -0.454868 0.178217
v -0.837913 -0.467134 0.347075
v -0.896436 -0.467807 0.103100
v -0.839926 -0.150565 0.561221
v -0.561734 -0.141182 0.840695
v -0.713341 -0.164319 0.713341
v -0.937743 -0.101468 0.388426
v -0.538300 -0.120117 0.855562
v -0.902584 -0.007024 0.473843
v -0.666444 -0.178801 0.676906
v -0.625200 -0.371084 0.635661
v -0.514104 -0.178801 0.801928
v -0.791467 -0.178801 0.524565
v -0.742969 -0.371084 0.492160
v -0.884367 -0.178801 0.350761
v -0.830479 -0.371084 0.328440
v -0.884367 -0.371084 0.150794
v -0.940144 -0.178801 0.166888
v -0.429075 -0.548293 0.674673
v -0.360026 -0.699735 0.571334
v -0.559897 -0.543863 0.570358
v -0.702703 -0.461684 0.465255
v -0.895210 -0.371084 0.040708
v -0.472463 -0.178801 0.824186
v -0.495057 -0.291820 0.773422
v -0.447264 -0.487040 0.701896
v -0.368042 -0.548293 0.707296
v -0.554962 -0.371084 0.693304
v -0.851540 -0.433702 0.144264
v -0.793499 -0.445968 0.313123
v -0.852023 -0.446640 0.069147
v -0.795513 -0.129398 0.527268
v -0.517321 -0.120016 0.806742
v -0.668927 -0.143153 0.679388
v -0.893330 -0.080302 0.354474
v -0.493887 -0.098951 0.821609
v -0.858170 0.014143 0.439891
v -0.559897 -0.543863 0.570358
v -0.360026 -0.699735 0.571334
v -0.360026 -0.699735 0.571334
v -0.747117 -0.482850 0.499208
v -0.604311 -0.565029 0.604311
v -0.837913 -0.467134 0.347075
v -0.539470 -0.312987 0.807374
v -0.516876 -0.199967 0.858138
v -0.516876 -0.199967 0.858138
v -0.599375 -0.392250 0.727257
v -0.599375 -0.392250 0.727257
v -0.412455 -0.569459 0.741248
v -0.412455 -0.569459 0.741248
v -0.491678 -0.508206 0.735848
v -0.404439 -0.720901 0.605286
v -0.404439 -0.720901 0.605286
v -0.895954 -0.454868 0.178217
v -0.939623 -0.392250 0.074660
v -0.939623 -0.392250 0.074660
v -0.896436 -0.467807 0.103100
v -0.896436 -0.467807 0.103100
v -0.538300 -0.120117 0.855562
v -0.538300 -0.120117 0.855562
v -0.713341 -0.164319 0.713341
v -0.839926 -0.150565 0.561221
v -0.839926 -0.150565 0.561221
v -0.561734 -0.141182 0.840695
v -0.561734 -0.141182 0.840695
v -0.940144 -0.178801 0.166888
v -0.940144 -0.178801 0.166888
v -0.895210 -0.371084 0.040708
v -0.895210 -0.371084 0.040708
v -0.902584 -0.007024 0.473843
v -0.902584 -0.007024 0.473843
v -0.937743 -0.101468 0.388426
v -0.702703 -0.461684 0.465255
v -0.793499 -0.445968 0.313123
v -0.495057 -0.291820 0.773422
v -0.472463 -0.178801 0.824186
v -0.472463 -0.178801 0.824186
v -0.554962 -0.371084 0.693304
v -0.554962 -0.371084 0.693304
v -0.368042 -0.548293 0.707296
v -0.368042 -0.548293 0.707296
v -0.447264 -0.487040 0.701896
v -0.851540 -0.433702 0.144264
v -0.852023 -0.446640 0.069147
v -0.852023 -0.446640 0.069147
v -0.493887 -0.098951 0.821609
v -0.493887 -0.098951 0.821609
v -0.668927 -0.143153 0.679388
v -0.795513 -0.129398 0.527268
v -0.795513 -0.129398 0.527268
v -0.517321 -0.120016 0.806742
v -0.517321 -0.120016 0.806742
v -0.858170 0.014143 0.439891
v -0.858170 0.014143 0.439891
v -0.893330 -0.080302 0.354474
v -0.984558 -0.199967 0.200840
v -0.984558 -0.199967 0.200840
vt 0.612227 0.767867
vt 0.619632 0.730589
vt 0.656006 0.738928
vt 0.646383 0.775573
vt 0.691793 0.749289
vt 0.680051 0.785403
vt 0.570140 0.838098
vt 0.573490 0.800849
vt 0.604267 0.805319
vt 0.641452 0.794488
vt 0.605240 0.804489
vt 0.674985 0.800783
vt 0.713113 0.797408
vt 0.726896 0.762555
vt 0.732524 0.805965
vt 0.579418 0.746283
vt 0.573968 0.722760
vt 0.582896 0.723988
vt 0.595085 0.765159
vt 0.560274 0.800366
vt 0.574681 0.787627
vt 0.720027 0.818535
vt 0.708021 0.810014
vt 0.726349 0.761345
vt 0.621003 0.723879
vt 0.658387 0.729780
vt 0.579974 0.708116
vt 0.584635 0.712883
vt 0.685655 0.708947
vt 0.697496 0.731280
vt 0.727168 0.760939
vt 0.612227 0.767867
vt 0.646383 0.775573
vt 0.656006 0.738928
vt 0.619632 0.730589
vt 0.680051 0.785403
vt 0.691793 0.749289
vt 0.570140 0.838098
vt 0.604267 0.805319
vt 0.573490 0.800849
vt 0.641452 0.794488
vt 0.605240 0.804489
vt 0.674985 0.800783
vt 0.713113 0.797408
vt 0.732524 0.805965
vt 0.726896 0.762555
vt 0.579418 0.746283
vt 0.582896 0.723988
vt 0.573968 0.722760
vt 0.595085 0.765159
vt 0.560274 0.800366
vt 0.574681 0.787627
vt 0.708021 0.810014
vt 0.720027 0.818535
vt 0.658387 0.729780
vt 0.621003 0.723879
vt 0.584635 0.712883
vt 0.579974 0.708116
vt 0.697496 0.731280
vt 0.685655 0.708947
vt 0.726349 0.761345
vt 0.634106 0.690417
vt 0.633682 0.687172
vt 0.622936 0.688728
vt 0.623360 0.691973
vt 0.577083 0.692168
vt 0.576660 0.688924
vt 0.573332 0.691440
vt 0.573756 0.694685
vt 0.657194 0.686126
vt 0.656771 0.682882
vt 0.649908 0.682234
vt 0.650332 0.685478
vt 0.645808 0.685306
vt 0.645384 0.682061
vt 0.643833 0.683170
vt 0.644256 0.686415
vt 0.664155 0.686712
vt 0.663732 0.683468
vt 0.644256 0.686415
vt 0.643833 0.683170
vt 0.677191 0.681247
vt 0.676768 0.678003
vt 0.671891 0.680522
vt 0.672314 0.683766
vt 0.606628 0.691791
vt 0.606205 0.688547
vt 0.594338 0.688060
vt 0.594761 0.691304
vt 0.701379 0.681578
vt 0.700955 0.678334
vt 0.687496 0.674971
vt 0.687919 0.678215
vt 0.687919 0.678215
vt 0.687496 0.674971
vt 0.676768 0.678003
vt 0.677191 0.681247
vt 0.623360 0.691973
vt 0.622936 0.688728
vt 0.613271 0.687014
vt 0.613694 0.690259
vt 0.663732 0.683468
vt 0.664155 0.686712
vt 0.613694 0.690259
vt 0.613271 0.687014
vt 0.712066 0.681139
vt 0.711643 0.677894
vt 0.564531 0.695742
vt 0.564955 0.698987
vt 0.555144 0.698321
vt 0.555567 0.701565
vt 0.650332 0.685478
vt 0.649908 0.682234
vt 0.645384 0.682061
vt 0.645808 0.685306
vt 0.581941 0.690937
vt 0.581517 0.687692
vt 0.576660 0.688924
vt 0.577083 0.692168
vt 0.594761 0.691304
vt 0.594338 0.688060
vt 0.581517 0.687692
vt 0.581941 0.690937
vn -0.6539 -0.3805 0.6539
vn -0.6937 -0.1939 0.6937
vn -0.8157 -0.1939 0.5450
vn -0.7689 -0.3805 0.5137
vn -0.9063 -0.1939 0.3754
vn -0.8544 -0.3805 0.3539
vn -0.4548 -0.6341 0.6254
vn -0.4638 -0.5535 0.6917
vn -0.5860 -0.5123 0.6279
vn -0.7253 -0.4713 0.5018
vn -0.8130 -0.4714 0.3419
vn -0.9076 -0.3794 0.1797
vn -0.9355 -0.2538 0.2457
vn -0.9178 -0.3865 0.0904
vn -0.5863 -0.2896 0.7565
vn -0.4628 -0.1900 0.8658
vn -0.5450 -0.1939 0.8157
vn -0.5879 -0.3758 0.7163
vn -0.3858 -0.5744 0.7219
vn -0.5279 -0.4709 0.7067
vn -0.8786 -0.4696 0.0865
vn -0.8655 -0.4714 0.1692
vn -0.7027 -0.0980 0.7047
vn -0.8409 -0.0980 0.5322
vn -0.4691 -0.0975 0.8777
vn -0.5356 -0.0980 0.8387
vn -0.8777 -0.0975 0.4691
vn -0.9050 -0.0979 0.4140
vn 0.6539 0.3805 -0.6539
vn 0.7689 0.3805 -0.5137
vn 0.8157 0.1939 -0.5450
vn 0.6937 0.1939 -0.6937
vn 0.8544 0.3805 -0.3539
vn 0.9063 0.1939 -0.3754
vn 0.4548 0.6341 -0.6254
vn 0.5860 0.5123 -0.6279
vn 0.4638 0.5535 -0.6917
vn 0.7253 0.4713 -0.5018
vn 0.8130 0.4714 -0.3419
vn 0.9076 0.3794 -0.1797
vn 0.9178 0.3865 -0.0904
vn 0.9355 0.2538 -0.2457
vn 0.5863 0.2896 -0.7565
vn 0.5450 0.1939 -0.8157
vn 0.4628 0.1900 -0.8658
vn 0.5879 0.3758 -0.7163
vn 0.3858 0.5744 -0.7219
vn 0.5279 0.4709 -0.7067
vn 0.8655 0.4714 -0.1692
vn 0.8786 0.4696 -0.0865
vn 0.8409 0.0980 -0.5322
vn 0.7027 0.0980 -0.7047
vn 0.5356 0.0980 -0.8387
vn 0.4691 0.0975 -0.8777
vn 0.9050 0.0979 -0.4140
vn 0.8777 0.0975 -0.4691
vn -0.2640 0.9348 0.2374
vn -0.2698 0.9350 0.2300
vn -0.2322 0.9322 0.2775
vn 0.5125 -0.8467 0.1426
vn 0.4452 -0.8951 0.0244
vn 0.3900 -0.9187 -0.0626
vn 0.6407 -0.6216 0.4506
vn 0.6523 -0.5731 0.4960
vn 0.6691 -0.4116 0.6187
vn -0.5607 0.7927 -0.2393
vn 0.5884 -0.7500 0.3021
vn -0.3012 0.9347 0.1887
vn 0.3486 0.5196 0.7800
vn 0.3728 0.4858 0.7905
vn 0.3831 0.4709 0.7947
vn -0.6099 0.7077 -0.3566
vn -0.6081 0.7117 -0.3518
vn -0.5723 0.7761 -0.2647
vn -0.1911 -0.7010 -0.6870
vn -0.2412 -0.6500 -0.7207
vn -0.3739 -0.4843 -0.7910
vn 0.6657 -0.4787 0.5724
vn 0.2957 0.5876 0.7532
vn 0.4058 0.4364 0.8030
vn -0.6372 0.6338 -0.4385
vn 0.1034 -0.8991 -0.4252
vn 0.1084 -0.9010 -0.4199
vn 0.2875 -0.9351 -0.2069
vn 0.2792 -0.9352 -0.2178
vn 0.5449 0.1727 0.8205
vn -0.3612 -0.5022 -0.7856
vn -0.6650 0.2948 -0.6861
s 1
f 4/1/1 3/2/2 5/3/3 6/4/4
f 6/4/4 5/3/3 7/5/5 8/6/6
f 71/7/7 2/8/8 61/9/9
f 60/10/10 61/11/9 4/1/1 6/4/4
f 62/12/11 60/10/10 6/4/4 8/6/6
f 9/13/12 115/14/13 74/15/14
f 63/16/15 64/17/16 1/18/17
f 66/19/18 63/16/15 1/18/17 3/2/2 4/1/1
f 68/20/19 70/21/20 2/8/8
f 68/20/19 2/8/8 71/7/7
f 2/8/8 70/21/20 66/19/18 4/1/1 61/11/9
f 74/15/14 76/22/21 73/23/22 9/13/12
f 73/23/22 62/12/11 8/6/6 9/13/12
f 7/5/5 115/24/13 9/13/12 8/6/6
f 3/2/2 80/25/23 81/26/24 5/3/3
f 64/17/16 78/27/25 83/28/26 1/18/17
f 1/18/17 83/28/26 80/25/23 3/2/2
f 81/26/24 89/29/27 91/30/28
f 7/5/5 91/30/28 115/31/13
f 30/32/29 33/33/30 32/34/31 29/35/32
f 33/33/30 35/36/33 34/37/34 32/34/31
f 58/38/35 57/39/36 38/40/37
f 92/41/38 33/33/30 30/32/29 57/42/36
f 93/43/39 35/36/33 33/33/30 92/41/38
f 36/44/40 87/45/41 85/46/42
f 94/47/43 31/48/44 95/49/45
f 97/50/46 30/32/29 29/35/32 31/48/44 94/47/43
f 99/51/47 38/40/37 101/52/48
f 99/51/47 58/38/35 38/40/37
f 38/40/37 57/39/36 30/32/29 97/50/46 101/52/48
f 87/45/41 36/44/40 102/53/49 103/54/50
f 102/53/49 36/44/40 35/36/33 93/43/39
f 34/37/34 35/36/33 36/44/40 85/46/42
f 29/35/32 32/34/31 108/55/51 107/56/52
f 95/49/45 31/48/44 110/57/53 105/58/54
f 31/48/44 29/35/32 107/56/52 110/57/53
f 108/55/51 114/59/55 112/60/56
f 34/37/34 85/61/42 114/59/55
f 25/62/57 53/63/58 109/64/59 82/65/59
f 77/66/60 104/67/60 48/68/61 20/69/62
f 16/70/63 44/71/64 96/72/65 65/73/65
f 79/74/66 106/75/66 111/76/66 84/77/66
f 67/78/67 98/79/67 44/71/64 16/70/63
f 24/80/68 52/81/68 53/63/58 25/62/57
f 69/82/69 100/83/69 45/84/70 17/85/71
f 26/86/72 54/87/73 86/88/74 116/89/74
f 12/90/75 40/91/76 59/92/77 72/93/77
f 11/94/78 39/95/78 46/96/78 18/97/78
f 23/98/79 51/99/79 113/100/79 90/101/79
f 17/85/71 45/84/70 47/102/80 19/103/80
f 28/104/81 56/105/81 54/87/73 26/86/72
f 13/106/82 41/107/83 40/91/76 12/90/75
f 20/69/62 48/68/61 49/108/84 21/109/85
f 21/109/85 49/108/84 41/110/83 13/111/82
f 15/112/86 43/113/86 55/114/86 27/115/86
f 75/116/87 88/117/87 50/118/87 22/119/87
f 10/120/88 37/121/88 42/122/88 14/123/88
f 91/30/28 7/5/5 5/3/3 81/26/24
f 114/59/55 108/55/51 32/34/31 34/37/34
