# Blender v2.92.0 OBJ File: 'pallo final.blend'
# www.blender.org
o Pala_.005_Sphere.008
v 0.362392 0.392251 0.874893
v 0.384713 0.199968 0.928781
v 0.184746 0.392251 0.928781
v 0.196125 0.199968 0.985988
v -0.000000 0.199968 1.005305
v -0.000000 0.000000 1.025000
v -0.199968 0.000000 1.005305
v 0.066898 0.000000 1.018411
v -0.000000 -0.145286 1.010691
v 0.430696 0.199968 0.904203
v 0.445251 0.392251 0.830604
v 0.348967 0.457884 0.842481
v 0.388524 0.098877 0.937980
v 0.199052 0.047670 1.000700
v 0.178218 0.454851 0.895963
v 0.010104 0.392251 0.945982
v 0.221271 0.563357 0.822587
v -0.116020 0.199968 0.993878
v -0.197294 0.139134 0.991865
v -0.351779 0.195237 0.939256
v -0.197813 -0.112157 0.994471
v -0.311915 0.000000 0.971346
v -0.385880 0.118198 0.936802
v 0.354259 0.378795 0.807302
v 0.376580 0.186512 0.861190
v 0.176612 0.378795 0.861190
v 0.187991 0.186512 0.918397
v -0.008134 0.186512 0.937714
v -0.008134 -0.013455 0.957409
v -0.208101 -0.013455 0.937714
v 0.058765 -0.013455 0.950820
v -0.008134 -0.158741 0.943100
v 0.422562 0.186512 0.836612
v 0.437117 0.378795 0.763013
v 0.340833 0.444428 0.774890
v 0.380390 0.085422 0.870389
v 0.190918 0.034215 0.933109
v 0.170084 0.441396 0.828372
v 0.001971 0.378795 0.878391
v 0.213137 0.549902 0.754996
v -0.124154 0.186512 0.926287
v -0.205428 0.125679 0.924274
v -0.189632 -0.099047 0.925413
v -0.291729 0.006508 0.916844
v -0.359913 0.181781 0.871665
v -0.382262 0.120283 0.861781
v 0.388524 0.098877 0.937980
v 0.388524 0.098877 0.937980
v 0.430696 0.199968 0.904203
v 0.445251 0.392251 0.830604
v 0.445251 0.392251 0.830604
v 0.348967 0.457884 0.842481
v 0.066898 0.000000 1.018411
v 0.066898 0.000000 1.018411
v 0.199052 0.047670 1.000700
v 0.221271 0.563357 0.822587
v 0.221271 0.563357 0.822587
v -0.351779 0.195237 0.939256
v -0.351779 0.195237 0.939256
v -0.385880 0.118198 0.936802
v -0.385880 0.118198 0.936802
v -0.000000 -0.145286 1.010691
v -0.000000 -0.145286 1.010691
v 0.178218 0.454851 0.895963
v 0.178218 0.454851 0.895963
v 0.170084 0.441396 0.828372
v 0.170084 0.441396 0.828372
v 0.001971 0.378795 0.878391
v 0.001971 0.378795 0.878391
v 0.010104 0.392251 0.945982
v 0.010104 0.392251 0.945982
v -0.116020 0.199968 0.993878
v -0.197294 0.139134 0.991865
v -0.197294 0.139134 0.991865
v -0.311915 0.000000 0.971346
v -0.197813 -0.112157 0.994471
v -0.197813 -0.112157 0.994471
v 0.380390 0.085422 0.870389
v 0.380390 0.085422 0.870389
v 0.422562 0.186512 0.836612
v 0.437117 0.378795 0.763013
v 0.437117 0.378795 0.763013
v 0.340833 0.444428 0.774890
v 0.058765 -0.013455 0.950820
v 0.058765 -0.013455 0.950820
v 0.190918 0.034215 0.933109
v 0.213137 0.549902 0.754996
v 0.213137 0.549902 0.754996
v -0.359913 0.181781 0.871665
v -0.359913 0.181781 0.871665
v -0.382262 0.120283 0.861781
v -0.382262 0.120283 0.861781
v -0.124154 0.186512 0.926287
v -0.205428 0.125679 0.924274
v -0.205428 0.125679 0.924274
v -0.291729 0.006508 0.916844
v -0.189632 -0.099047 0.925413
v -0.189632 -0.099047 0.925413
v -0.008134 -0.158741 0.943100
v -0.008134 -0.158741 0.943100
vt 0.417122 0.761151
vt 0.398720 0.734429
vt 0.422940 0.716791
vt 0.442668 0.742259
vt 0.501766 0.759112
vt 0.480098 0.754175
vt 0.489156 0.745675
vt 0.426690 0.774722
vt 0.410046 0.765892
vt 0.385817 0.742528
vt 0.391943 0.724445
vt 0.458086 0.761941
vt 0.467140 0.722080
vt 0.415847 0.707669
vt 0.444880 0.698664
vt 0.447339 0.698959
vt 0.480880 0.709986
vt 0.496518 0.709051
vt 0.510390 0.725269
vt 0.523574 0.713962
vt 0.520988 0.737612
vt 0.509918 0.686589
vt 0.521343 0.692305
vt 0.417122 0.761151
vt 0.442668 0.742259
vt 0.422940 0.716791
vt 0.398720 0.734429
vt 0.512417 0.771284
vt 0.489156 0.745675
vt 0.480098 0.754175
vt 0.426690 0.774722
vt 0.410046 0.765892
vt 0.385817 0.742528
vt 0.391943 0.724445
vt 0.458086 0.761941
vt 0.467140 0.722080
vt 0.415847 0.707669
vt 0.447339 0.698959
vt 0.444880 0.698664
vt 0.480880 0.709986
vt 0.510390 0.725269
vt 0.496518 0.709051
vt 0.523574 0.713962
vt 0.520988 0.737612
vt 0.521343 0.692305
vt 0.509918 0.686589
vt 0.501766 0.759112
vt 0.446684 0.675079
vt 0.447176 0.678689
vt 0.456703 0.676495
vt 0.456210 0.672886
vt 0.397876 0.680387
vt 0.398368 0.683996
vt 0.409184 0.684054
vt 0.408692 0.680445
vt 0.456210 0.672886
vt 0.456703 0.676495
vt 0.468954 0.675110
vt 0.468462 0.671501
vt 0.474260 0.675620
vt 0.473768 0.672011
vt 0.482627 0.673900
vt 0.483119 0.677509
vt 0.486492 0.678339
vt 0.487019 0.674430
vt 0.473768 0.672011
vt 0.474260 0.675620
vt 0.483119 0.677509
vt 0.482627 0.673900
vt 0.494501 0.673495
vt 0.494458 0.676564
vt 0.502125 0.677486
vt 0.502979 0.673871
vt 0.408692 0.680445
vt 0.409184 0.684054
vt 0.415189 0.683678
vt 0.414697 0.680068
vt 0.513319 0.676026
vt 0.512008 0.679425
vt 0.520378 0.680203
vt 0.521689 0.676804
vt 0.431490 0.678820
vt 0.431982 0.682430
vt 0.440727 0.681973
vt 0.440234 0.678364
vt 0.487019 0.674430
vt 0.486492 0.678339
vt 0.426020 0.683932
vt 0.425528 0.680323
vt 0.440234 0.678364
vt 0.440727 0.681973
vt 0.447176 0.678689
vt 0.446684 0.675079
vt 0.502979 0.673871
vt 0.502125 0.677486
vt 0.512008 0.679425
vt 0.513319 0.676026
vt 0.425528 0.680323
vt 0.426020 0.683932
vt 0.390575 0.681779
vt 0.391067 0.685388
vt 0.395779 0.697495
vt 0.395779 0.697495
vn 0.3754 0.1939 0.9063
vn 0.3539 0.3805 0.8544
vn 0.1804 0.3805 0.9070
vn 0.1914 0.1939 0.9622
vn -0.0520 -0.0979 0.9938
vn 0.0979 0.0410 0.9943
vn 0.0000 0.0000 1.0000
vn 0.3271 0.0978 0.9399
vn 0.4601 0.2179 0.8607
vn 0.4412 0.3518 0.8255
vn 0.3016 0.4710 0.8289
vn 0.1762 0.0980 0.9794
vn -0.0014 0.1963 0.9805
vn 0.2041 0.4711 0.8581
vn 0.0550 0.3200 0.9458
vn -0.0968 0.1568 0.9828
vn -0.1869 0.0980 0.9775
vn -0.1951 0.0000 0.9808
vn -0.2900 0.0465 0.9559
vn -0.1588 -0.0979 0.9824
vn -0.2889 0.0975 0.9524
vn -0.3754 -0.1939 -0.9063
vn -0.1914 -0.1939 -0.9622
vn -0.1804 -0.3805 -0.9070
vn -0.3539 -0.3805 -0.8544
vn 0.0616 0.1169 -0.9912
vn 0.0046 0.0064 -0.9999
vn -0.0979 -0.0410 -0.9943
vn -0.3272 -0.0978 -0.9399
vn -0.4601 -0.2179 -0.8607
vn -0.4412 -0.3518 -0.8255
vn -0.3016 -0.4710 -0.8289
vn -0.1762 -0.0980 -0.9794
vn 0.0014 -0.1963 -0.9805
vn -0.2041 -0.4711 -0.8581
vn -0.0550 -0.3200 -0.9458
vn 0.0968 -0.1568 -0.9828
vn 0.1960 0.0378 -0.9799
vn 0.1712 -0.1108 -0.9790
vn 0.2868 -0.0562 -0.9563
vn 0.1528 0.1393 -0.9784
vn 0.4857 -0.0361 -0.8733
vn 0.3732 -0.0817 -0.9241
vn -0.3810 0.9145 -0.1362
vn 0.3292 -0.9329 0.1461
vn 0.3278 -0.9333 0.1463
vn 0.3041 -0.9406 0.1506
vn -0.8371 0.5470 -0.0081
vn -0.7186 0.6934 -0.0515
vn -0.7386 0.6726 -0.0450
vn -0.5955 0.7985 -0.0873
vn -0.9260 0.3774 -0.0008
vn 0.3994 0.8887 -0.2250
vn -0.7167 -0.6601 -0.2248
vn -0.7201 -0.6574 -0.2221
vn -0.6650 -0.6988 -0.2636
vn 0.9185 -0.3939 -0.0321
vn 0.9670 -0.2455 -0.0675
vn 0.9618 -0.2665 -0.0627
vn 0.9085 -0.4169 -0.0263
vn 0.5872 0.7774 -0.2254
vn 0.5862 0.7781 -0.2254
vn 0.6412 0.7342 -0.2233
vn -0.7676 -0.6146 -0.1818
vn 0.9890 -0.1119 -0.0967
vn -0.9210 0.3881 0.0335
vn -0.2379 -0.9713 0.0023
vn 0.5294 0.8176 -0.2264
vn 0.3526 -0.9250 0.1417
vn 0.2563 0.4696 0.8448
vn -0.2563 -0.4696 -0.8448
s 1
f 2/1/1 1/2/2 3/3/3 4/4/4
f 62/5/5 53/6/6 6/7/7
f 47/8/8 49/9/9 2/1/1
f 49/9/9 50/10/10 1/2/2 2/1/1
f 50/10/10 52/11/11 1/2/2
f 55/12/12 47/8/8 2/1/1 4/4/4
f 53/6/6 55/12/12 4/4/4 5/13/13 6/7/7
f 1/2/2 52/11/11 64/14/14 3/3/3
f 4/4/4 3/3/3 70/15/15 5/13/13
f 3/3/3 64/14/14 70/15/15
f 5/13/13 70/16/15 72/17/16
f 6/7/7 5/13/13 72/17/16 73/18/17 7/19/18
f 75/20/19 76/21/20 7/19/18
f 75/20/19 58/22/21 60/23/21
f 76/21/20 62/5/5 6/7/7 7/19/18
f 25/24/22 27/25/23 26/26/24 24/27/25
f 99/28/26 29/29/27 84/30/28
f 78/31/29 25/24/22 80/32/30
f 80/32/30 25/24/22 24/27/25 81/33/31
f 81/33/31 24/27/25 83/34/32
f 86/35/33 27/25/23 25/24/22 78/31/29
f 84/30/28 29/29/27 28/36/34 27/25/23 86/35/33
f 24/27/25 26/26/24 66/37/35 83/34/32
f 27/25/23 28/36/34 68/38/36 26/26/24
f 26/26/24 68/39/36 66/37/35
f 28/36/34 93/40/37 68/38/36
f 29/29/27 30/41/38 94/42/39 93/40/37 28/36/34
f 96/43/40 30/41/38 97/44/41
f 96/43/40 91/45/42 89/46/43
f 97/44/41 30/41/38 29/29/27 99/47/26
f 15/48/44 38/49/44 69/50/44 71/51/44
f 14/52/45 37/53/46 79/54/47 48/55/47
f 16/56/48 39/57/48 41/58/49 18/59/50
f 18/59/50 41/58/49 42/60/51 19/61/51
f 20/62/52 45/63/52 92/64/52 61/65/52
f 74/66/53 95/67/53 90/68/53 59/69/53
f 22/70/54 44/71/55 98/72/56 77/73/56
f 13/74/57 36/75/57 33/76/58 10/77/59
f 63/78/60 100/79/60 85/80/60 54/81/60
f 12/82/61 35/83/62 87/84/63 56/85/63
f 23/86/64 46/87/64 44/71/55 22/70/54
f 10/77/59 33/76/58 82/88/65 51/89/65
f 57/90/66 88/91/66 67/92/66 65/93/66
f 21/94/67 43/95/67 32/96/67 9/97/67
f 11/98/68 34/99/68 35/83/62 12/82/61
f 8/100/69 31/101/69 37/53/46 14/52/45
f 58/22/21 75/20/19 7/19/18 73/18/17
f 89/46/43 94/42/39 30/41/38 96/43/40
f 52/11/11 17/102/70 64/14/14
f 66/37/35 40/103/71 83/34/32
