# Blender v2.92.0 OBJ File: 'pallo final.blend'
# www.blender.org
o Pala_.024_Sphere.027
v 0.141398 0.724784 -0.710858
v 0.217923 0.852256 -0.526112
v 0.277363 0.724784 -0.669613
v 0.316375 0.852256 -0.473488
v 0.402669 0.724784 -0.602636
v 0.473488 0.569459 -0.708625
v 0.512500 0.724784 -0.512500
v 0.602636 0.569459 -0.602636
v 0.602636 0.724784 -0.402668
v 0.526112 0.852256 -0.217923
v 0.669614 0.724784 -0.277363
v 0.117221 0.683439 -0.682275
v 0.253186 0.683439 -0.641031
v 0.709827 0.724784 -0.144797
v 0.193745 0.810911 -0.497529
v 0.705863 0.676976 -0.292378
v 0.476717 0.849069 -0.318532
v 0.378491 0.683439 -0.574054
v 0.405415 0.849069 -0.405414
v 0.449311 0.528114 -0.680043
v 0.647048 0.569459 -0.548520
v 0.647322 0.659298 -0.432527
v 0.562326 0.849069 -0.111853
v 0.292197 0.810911 -0.444906
v 0.486299 0.875291 -0.201431
v 0.280200 0.887060 -0.419349
v 0.186855 0.895650 -0.451108
v 0.049939 0.724784 -0.719866
v 0.111854 0.849069 -0.562326
v 0.488323 0.683439 -0.483917
v 0.626394 0.805508 -0.000286
v 0.055111 0.783141 -0.648249
v 0.155352 0.637632 -0.781008
v 0.307733 0.628083 -0.742933
v 0.398496 0.569459 -0.748710
v 0.632004 0.491759 -0.632003
v 0.654622 0.506819 -0.591815
v 0.031413 0.661931 -0.773273
v 0.491673 0.508222 -0.735841
v 0.443441 0.539921 -0.742502
v 0.578459 0.528114 -0.574054
v 0.578459 0.683439 -0.374086
v 0.501935 0.810911 -0.189340
v 0.645436 0.683439 -0.248780
v 0.685649 0.683439 -0.116215
v 0.681685 0.635631 -0.263795
v 0.452540 0.807724 -0.289949
v 0.381237 0.807724 -0.376832
v 0.622871 0.528114 -0.519938
v 0.623145 0.617953 -0.403944
v 0.538149 0.807724 -0.083271
v 0.462121 0.833946 -0.172849
v 0.256022 0.845715 -0.390766
v 0.162677 0.854305 -0.422525
v 0.025761 0.683439 -0.691283
v 0.087676 0.807724 -0.533744
v 0.419263 0.498576 -0.713920
v 0.602217 0.764163 0.028297
v 0.030934 0.741796 -0.619667
v 0.131175 0.596287 -0.752426
v 0.283556 0.586738 -0.714351
v 0.374318 0.528114 -0.720127
v 0.607826 0.450414 -0.603421
v 0.630445 0.465474 -0.563232
v 0.007235 0.620586 -0.744691
v 0.467496 0.466877 -0.707258
v 0.709827 0.724784 -0.144797
v 0.709827 0.724784 -0.144797
v 0.705863 0.676976 -0.292378
v 0.626394 0.805508 -0.000286
v 0.626394 0.805508 -0.000286
v 0.562326 0.849069 -0.111853
v 0.405415 0.849069 -0.405414
v 0.405415 0.849069 -0.405414
v 0.476717 0.849069 -0.318532
v 0.476717 0.849069 -0.318532
v 0.486299 0.875291 -0.201431
v 0.486299 0.875291 -0.201431
v 0.647322 0.659298 -0.432527
v 0.647322 0.659298 -0.432527
v 0.647048 0.569459 -0.548520
v 0.186855 0.895650 -0.451108
v 0.186855 0.895650 -0.451108
v 0.280200 0.887060 -0.419349
v 0.049939 0.724784 -0.719866
v 0.055111 0.783141 -0.648249
v 0.111854 0.849069 -0.562326
v 0.654622 0.506819 -0.591815
v 0.654622 0.506819 -0.591815
v 0.031413 0.661931 -0.773273
v 0.031413 0.661931 -0.773273
v 0.307733 0.628083 -0.742933
v 0.307733 0.628083 -0.742933
v 0.155352 0.637632 -0.781008
v 0.398496 0.569459 -0.748710
v 0.632004 0.491759 -0.632003
v 0.632004 0.491759 -0.632003
v 0.491673 0.508222 -0.735841
v 0.491673 0.508222 -0.735841
v 0.443441 0.539921 -0.742502
v 0.685649 0.683439 -0.116215
v 0.685649 0.683439 -0.116215
v 0.681685 0.635631 -0.263795
v 0.602217 0.764163 0.028297
v 0.602217 0.764163 0.028297
v 0.538149 0.807724 -0.083271
v 0.381237 0.807724 -0.376832
v 0.381237 0.807724 -0.376832
v 0.452540 0.807724 -0.289949
v 0.452540 0.807724 -0.289949
v 0.462121 0.833946 -0.172849
v 0.462121 0.833946 -0.172849
v 0.623145 0.617953 -0.403944
v 0.623145 0.617953 -0.403944
v 0.622871 0.528114 -0.519938
v 0.162677 0.854305 -0.422525
v 0.162677 0.854305 -0.422525
v 0.256022 0.845715 -0.390766
v 0.025761 0.683439 -0.691283
v 0.030934 0.741796 -0.619667
v 0.087676 0.807724 -0.533744
v 0.630445 0.465474 -0.563232
v 0.630445 0.465474 -0.563232
v 0.007235 0.620586 -0.744691
v 0.007235 0.620586 -0.744691
v 0.283556 0.586738 -0.714351
v 0.283556 0.586738 -0.714351
v 0.131175 0.596287 -0.752426
v 0.374318 0.528114 -0.720127
v 0.607826 0.450414 -0.603421
v 0.607826 0.450414 -0.603421
v 0.467496 0.466877 -0.707258
v 0.467496 0.466877 -0.707258
v 0.419263 0.498576 -0.713920
vt 0.904999 0.334885
vt 0.870630 0.322930
vt 0.875869 0.303338
vt 0.911529 0.310125
vt 0.947188 0.316767
vt 0.914541 0.284705
vt 0.950770 0.286711
vt 0.904999 0.334885
vt 0.911529 0.310125
vt 0.875869 0.303338
vt 0.870630 0.322930
vt 0.901145 0.209409
vt 0.868777 0.222627
vt 0.870387 0.197800
vt 0.902193 0.209687
vt 0.920744 0.231127
vt 0.909760 0.233744
vt 0.913984 0.259118
vt 0.877498 0.262027
vt 0.874332 0.242376
vt 0.878947 0.283057
vt 0.878499 0.262455
vt 0.862572 0.300887
vt 0.877971 0.283539
vt 0.950791 0.273956
vt 0.929337 0.257740
vt 0.865644 0.244496
vt 0.868086 0.223468
vt 0.854768 0.317337
vt 0.862571 0.341134
vt 0.894941 0.358552
vt 0.886279 0.372903
vt 0.873071 0.362203
vt 0.863176 0.342039
vt 0.926577 0.342148
vt 0.913352 0.367843
vt 0.943546 0.331872
vt 0.959680 0.318968
vt 0.951362 0.325701
vt 0.963765 0.279315
vt 0.966783 0.287691
vt 0.896857 0.384302
vt 0.947188 0.316767
vt 0.950770 0.286711
vt 0.914541 0.284705
vt 0.901145 0.209409
vt 0.870387 0.197800
vt 0.868777 0.222627
vt 0.902193 0.209687
vt 0.909760 0.233744
vt 0.920744 0.231127
vt 0.913984 0.259118
vt 0.874332 0.242376
vt 0.877498 0.262027
vt 0.878499 0.262455
vt 0.878947 0.283057
vt 0.877971 0.283539
vt 0.862572 0.300887
vt 0.950791 0.273956
vt 0.929337 0.257740
vt 0.868086 0.223468
vt 0.865644 0.244496
vt 0.854768 0.317337
vt 0.862571 0.341134
vt 0.894941 0.358552
vt 0.886279 0.372903
vt 0.863176 0.342039
vt 0.873071 0.362203
vt 0.926577 0.342148
vt 0.913352 0.367843
vt 0.943546 0.331872
vt 0.959680 0.318968
vt 0.951362 0.325701
vt 0.966783 0.287691
vt 0.963765 0.279315
vt 0.896857 0.384302
vt 0.895257 0.180472
vt 0.892701 0.182815
vt 0.897300 0.187726
vt 0.899856 0.185383
vt 0.951161 0.245885
vt 0.948605 0.248229
vt 0.950861 0.256368
vt 0.953418 0.254024
vt 0.963223 0.260084
vt 0.960666 0.262428
vt 0.968746 0.267703
vt 0.971303 0.265359
vt 0.987057 0.282076
vt 0.984500 0.284420
vt 0.986521 0.286659
vt 0.989078 0.284316
vt 0.940559 0.226733
vt 0.938002 0.229077
vt 0.942066 0.234763
vt 0.944622 0.232420
vt 0.922898 0.211777
vt 0.920341 0.214120
vt 0.926753 0.220191
vt 0.929310 0.217848
vt 0.929310 0.217848
vt 0.926753 0.220191
vt 0.931661 0.223905
vt 0.934218 0.221562
vt 0.904448 0.194024
vt 0.901891 0.196367
vt 0.905121 0.203542
vt 0.907677 0.201198
vt 0.944622 0.232420
vt 0.942066 0.234763
vt 0.945217 0.241553
vt 0.947774 0.239210
vt 0.938002 0.229077
vt 0.940559 0.226733
vt 0.996653 0.292158
vt 0.994096 0.294502
vt 0.996799 0.296898
vt 0.999356 0.294555
vt 0.984925 0.277822
vt 0.982369 0.280165
vt 0.984500 0.284420
vt 0.987057 0.282076
vt 0.892738 0.178238
vt 0.890181 0.180582
vt 0.979102 0.270799
vt 0.976545 0.273143
vt 0.907677 0.201198
vt 0.905121 0.203542
vt 0.909732 0.206065
vt 0.912289 0.203721
vt 0.914006 0.209917
vt 0.916562 0.207574
vt 0.989078 0.284316
vt 0.986521 0.286659
vt 0.994096 0.294502
vt 0.996653 0.292158
vt 0.976545 0.273143
vt 0.979102 0.270799
vt 0.947774 0.239210
vt 0.945217 0.241553
vt 0.899856 0.185383
vt 0.897300 0.187726
vt 0.953418 0.254024
vt 0.950861 0.256368
vt 0.960666 0.262428
vt 0.963223 0.260084
vn 0.2717 0.7040 -0.6561
vn 0.2119 0.8294 -0.5169
vn 0.3120 0.8294 -0.4633
vn 0.3945 0.7040 -0.5904
vn 0.4630 0.5528 -0.6929
vn 0.5021 0.7040 -0.5021
vn 0.5893 0.5528 -0.5893
vn -0.2717 -0.7040 0.6561
vn -0.3945 -0.7040 0.5904
vn -0.3120 -0.8294 0.4633
vn -0.2119 -0.8294 0.5169
vn 0.6390 0.7527 -0.1583
vn 0.6004 0.7881 -0.1354
vn 0.6347 0.7701 -0.0638
vn 0.7082 0.6343 -0.3100
vn 0.6561 0.7040 -0.2717
vn 0.5904 0.7040 -0.3945
vn 0.5162 0.7865 -0.3389
vn 0.5150 0.8302 -0.2133
vn 0.4277 0.7913 -0.4369
vn 0.2533 0.8819 -0.3976
vn 0.6305 0.5785 -0.5175
vn 0.6307 0.6342 -0.4471
vn 0.4355 0.8819 -0.1804
vn 0.1874 0.8819 -0.4326
vn 0.1468 0.8005 -0.5810
vn 0.1385 0.7040 -0.6965
vn 0.0703 0.6966 -0.7140
vn 0.0623 0.7715 -0.6331
vn 0.3119 0.6343 -0.7074
vn 0.1594 0.6344 -0.7564
vn 0.3775 0.5987 -0.7064
vn 0.5122 0.4712 -0.7180
vn 0.4162 0.4696 -0.7786
vn 0.6825 0.4696 -0.5601
vn 0.6176 0.4714 -0.6296
vn 0.0759 0.6326 -0.7708
vn -0.4630 -0.5528 0.6929
vn -0.5893 -0.5528 0.5893
vn -0.5021 -0.7040 0.5021
vn -0.6390 -0.7527 0.1583
vn -0.6347 -0.7701 0.0638
vn -0.6004 -0.7881 0.1354
vn -0.6561 -0.7040 0.2717
vn -0.7082 -0.6343 0.3100
vn -0.5904 -0.7040 0.3945
vn -0.5150 -0.8302 0.2133
vn -0.5162 -0.7865 0.3389
vn -0.4277 -0.7913 0.4369
vn -0.2533 -0.8819 0.3976
vn -0.6305 -0.5785 0.5175
vn -0.6307 -0.6342 0.4471
vn -0.4355 -0.8819 0.1804
vn -0.1874 -0.8819 0.4326
vn -0.1468 -0.8005 0.5810
vn -0.1385 -0.7040 0.6965
vn -0.0703 -0.6966 0.7140
vn -0.0623 -0.7715 0.6331
vn -0.3119 -0.6343 0.7074
vn -0.1594 -0.6344 0.7564
vn -0.3775 -0.5987 0.7064
vn -0.5122 -0.4712 0.7180
vn -0.4162 -0.4696 0.7786
vn -0.6176 -0.4714 0.6296
vn -0.6825 -0.4696 0.5601
vn -0.0759 -0.6326 0.7708
vn -0.2593 -0.4420 -0.8587
vn -0.2549 -0.4445 -0.8587
vn -0.3172 -0.4067 -0.8567
vn -0.4727 0.6712 0.5710
vn -0.4827 0.6712 0.5625
vn -0.4989 0.6709 0.5485
vn 0.8906 -0.4390 0.1183
vn 0.8520 -0.5223 -0.0348
vn 0.8315 -0.5481 -0.0895
vn 0.7732 -0.5980 -0.2110
vn -0.5773 0.6651 0.4737
vn -0.7848 0.5900 0.1896
vn -0.7919 0.5847 0.1759
vn -0.7505 0.6117 0.2499
vn -0.1966 0.6327 0.7490
vn -0.0777 0.5973 0.7982
vn -0.0497 0.5875 0.8077
vn 0.0296 -0.5801 -0.8140
vn -0.0266 -0.5578 -0.8295
vn -0.1513 -0.5007 -0.8523
vn -0.8736 0.4852 -0.0371
vn 0.0702 0.5391 0.8393
vn -0.1956 -0.4777 -0.8564
vn 0.8941 -0.2830 0.3469
vn 0.8911 -0.2681 0.3660
vn 0.8722 -0.2022 0.4452
vn 0.9009 -0.3441 0.2644
vn -0.8972 0.4079 -0.1689
vn -0.8995 0.3898 -0.1970
vn -0.9001 0.3841 -0.2058
vn -0.8838 0.4608 -0.0809
vn -0.8750 0.4821 -0.0427
vn 0.3910 -0.6670 -0.6341
vn 0.7569 -0.6081 -0.2394
vn -0.4568 0.6709 0.5841
vn 0.1531 -0.6210 -0.7687
vn 0.8324 -0.1115 0.5428
s 1
f 3/1/1 2/2/2 4/3/3 5/4/4
f 6/5/5 5/4/4 7/6/6 8/7/7
f 13/8/8 18/9/9 24/10/10 15/11/11
f 67/12/12 72/13/13 70/14/14
f 67/15/12 69/16/15 11/17/16
f 9/18/17 75/19/18 10/20/19 11/17/16
f 7/6/6 73/21/20 75/22/18 9/18/17
f 5/4/4 4/3/3 73/21/20 7/6/6
f 4/3/3 84/23/21 73/24/20
f 8/7/7 7/6/6 9/18/17 81/25/22
f 69/16/15 79/26/23 9/18/17 11/17/16
f 10/20/19 77/27/24 72/28/13
f 11/17/16 10/20/19 72/13/13 67/15/12
f 75/19/18 77/27/24 10/20/19
f 2/2/2 82/29/25 84/23/21 4/3/3
f 82/29/25 2/2/2 87/30/26
f 1/31/27 87/30/26 2/2/2 3/1/1
f 85/32/28 86/33/29 87/34/26
f 92/35/30 94/36/31 1/31/27 3/1/1
f 95/37/32 92/35/30 3/1/1 5/4/4 6/5/5
f 98/38/33 100/39/34 6/5/5
f 81/25/22 88/40/35 96/41/36 8/7/7
f 94/36/31 90/42/37 85/32/28 1/31/27
f 96/41/36 98/38/33 6/5/5 8/7/7
f 6/5/5 100/39/34 95/37/32
f 81/25/22 9/18/17 79/26/23
f 87/34/26 1/31/27 85/32/28
f 20/43/38 41/44/39 30/45/40 18/9/9
f 101/46/41 104/47/42 106/48/43
f 101/49/41 44/50/44 103/51/45
f 42/52/46 44/50/44 43/53/47 109/54/48
f 30/45/40 42/52/46 109/55/48 107/56/49
f 18/9/9 30/45/40 107/56/49 24/10/10
f 24/10/10 107/57/49 118/58/50
f 41/44/39 115/59/51 42/52/46 30/45/40
f 103/51/45 44/50/44 42/52/46 113/60/52
f 43/53/47 106/61/43 111/62/53
f 44/50/44 101/49/41 106/48/43 43/53/47
f 109/54/48 43/53/47 111/62/53
f 15/11/11 24/10/10 118/58/50 116/63/54
f 116/63/54 121/64/55 15/11/11
f 12/65/56 13/8/8 15/11/11 121/64/55
f 119/66/57 121/67/55 120/68/58
f 126/69/59 13/8/8 12/65/56 128/70/60
f 129/71/61 20/43/38 18/9/9 13/8/8 126/69/59
f 132/72/62 20/43/38 134/73/63
f 115/59/51 41/44/39 130/74/64 122/75/65
f 128/70/60 12/65/56 119/66/57 124/76/66
f 130/74/64 41/44/39 20/43/38 132/72/62
f 20/43/38 129/71/61 134/73/63
f 115/59/51 113/60/52 42/52/46
f 121/67/55 119/66/57 12/65/56
f 35/77/67 62/78/68 127/79/69 93/80/69
f 23/81/70 51/82/71 105/83/72 71/84/72
f 68/85/73 102/86/73 46/87/74 16/88/75
f 89/89/76 123/90/76 131/91/76 97/92/76
f 74/93/77 108/94/77 110/95/77 76/96/77
f 29/97/78 56/98/79 117/99/80 83/100/80
f 27/101/81 54/102/81 53/103/82 26/104/83
f 33/105/84 60/106/85 125/107/86 91/108/86
f 17/109/87 47/110/87 112/111/87 78/112/87
f 26/104/83 53/103/82 48/113/88 19/114/88
f 99/115/89 133/116/89 57/117/89 40/118/89
f 21/119/90 49/120/91 64/121/92 37/122/92
f 40/123/89 57/124/89 62/78/68 35/77/67
f 80/125/93 114/126/93 49/120/91 21/119/90
f 38/127/94 65/128/94 55/129/95 28/130/96
f 28/130/96 55/129/95 59/131/97 32/132/98
f 36/133/99 63/134/99 66/135/99 39/136/99
f 16/88/75 46/87/74 50/137/100 22/138/100
f 32/132/98 59/131/97 56/98/79 29/97/78
f 25/139/101 52/140/101 51/82/71 23/81/70
f 34/141/102 61/142/102 60/106/85 33/105/84
f 31/143/103 58/144/103 45/145/103 14/146/103
