# Blender v2.92.0 OBJ File: 'pallo final.blend'
# www.blender.org
o Pala_.023_Sphere.026
v 0.000000 0.392251 -0.946976
v 0.000000 0.199968 -1.005305
v 0.000000 0.000000 -1.025000
v 0.166267 0.569459 -0.835880
v 0.184746 0.392251 -0.928781
v 0.196125 0.199968 -0.985988
v 0.326145 0.569459 -0.787382
v -0.196125 0.199968 -0.985987
v -0.199967 0.000000 -1.005304
v -0.296823 0.000000 -0.975923
v -0.281344 0.199968 -0.960136
v 0.000000 -0.051546 -1.019923
v -0.185030 0.387443 -0.930210
v 0.000000 0.565029 -0.854624
v -0.197987 -0.103064 -0.995348
v -0.386259 -0.093252 -0.939242
v 0.157242 0.625827 -0.790510
v 0.311441 0.616278 -0.751884
v 0.387298 0.569459 -0.754695
v 0.027933 0.650126 -0.783304
v 0.057770 -0.111893 -1.008290
v 0.264399 0.392251 -0.904618
v 0.348381 0.460748 -0.841066
v 0.198278 0.087911 -0.996813
v 0.254045 0.199968 -0.968418
v 0.121185 0.000000 -1.013064
v 0.436082 0.537890 -0.747661
v -0.003821 0.373938 -0.888240
v -0.003821 0.181655 -0.946569
v -0.003821 -0.018313 -0.966264
v 0.162446 0.551146 -0.777144
v 0.180925 0.373938 -0.870044
v 0.192305 0.181655 -0.927252
v 0.322324 0.551146 -0.728646
v -0.199946 0.181655 -0.927251
v -0.203788 -0.018313 -0.946568
v -0.300643 -0.018313 -0.917187
v -0.285165 0.181655 -0.901400
v -0.003821 -0.069859 -0.961187
v -0.188851 0.369130 -0.871474
v -0.003821 0.546716 -0.795888
v -0.201808 -0.121377 -0.936612
v -0.390079 -0.111565 -0.880506
v 0.153421 0.607514 -0.731774
v 0.307620 0.597965 -0.693147
v 0.383477 0.551146 -0.695959
v 0.024113 0.631813 -0.724568
v 0.053949 -0.130206 -0.949554
v 0.260579 0.373938 -0.845882
v 0.344560 0.442435 -0.782330
v 0.194458 0.069598 -0.938077
v 0.250224 0.181655 -0.909682
v 0.117365 -0.018313 -0.954328
v 0.432261 0.519577 -0.688925
v -0.296823 0.000000 -0.975923
v -0.296823 0.000000 -0.975923
v -0.281344 0.199968 -0.960136
v -0.197987 -0.103064 -0.995348
v -0.386259 -0.093252 -0.939242
v -0.386259 -0.093252 -0.939242
v -0.185030 0.387443 -0.930210
v -0.188851 0.369130 -0.871474
v -0.003821 0.546716 -0.795888
v 0.000000 -0.051546 -1.019923
v 0.000000 -0.051546 -1.019923
v 0.057770 -0.111893 -1.008290
v 0.057770 -0.111893 -1.008290
v 0.027933 0.650126 -0.783304
v 0.027933 0.650126 -0.783304
v 0.157242 0.625827 -0.790510
v 0.311441 0.616278 -0.751884
v 0.311441 0.616278 -0.751884
v 0.387298 0.569459 -0.754695
v 0.348381 0.460748 -0.841066
v 0.264399 0.392251 -0.904618
v 0.264399 0.392251 -0.904618
v 0.121185 0.000000 -1.013064
v 0.254045 0.199968 -0.968418
v 0.198278 0.087911 -0.996813
v 0.436082 0.537890 -0.747661
v 0.436082 0.537890 -0.747661
v -0.300643 -0.018313 -0.917187
v -0.300643 -0.018313 -0.917187
v -0.285165 0.181655 -0.901400
v -0.201808 -0.121377 -0.936612
v -0.390079 -0.111565 -0.880506
v -0.390079 -0.111565 -0.880506
v 0.024113 0.631813 -0.724568
v 0.024113 0.631813 -0.724568
v -0.003821 -0.069859 -0.961187
v -0.003821 -0.069859 -0.961187
v 0.000000 0.565029 -0.854624
v 0.053949 -0.130206 -0.949554
v 0.053949 -0.130206 -0.949554
v 0.153421 0.607514 -0.731774
v 0.307620 0.597965 -0.693147
v 0.307620 0.597965 -0.693147
v 0.383477 0.551146 -0.695959
v 0.344560 0.442435 -0.782330
v 0.260579 0.373938 -0.845882
v 0.260579 0.373938 -0.845882
v 0.117365 -0.018313 -0.954328
v 0.250224 0.181655 -0.909682
v 0.194458 0.069598 -0.938077
v 0.432261 0.519577 -0.688925
v 0.432261 0.519577 -0.688925
vt 0.827760 0.352960
vt 0.793333 0.368742
vt 0.777516 0.335331
vt 0.811452 0.318725
vt 0.727243 0.321216
vt 0.760289 0.302535
vt 0.743726 0.351996
vt 0.845528 0.344624
vt 0.859872 0.379277
vt 0.835870 0.370348
vt 0.800050 0.384371
vt 0.759165 0.383890
vt 0.710189 0.368307
vt 0.757909 0.383450
vt 0.694491 0.340427
vt 0.820343 0.314437
vt 0.708942 0.368004
vt 0.688454 0.372051
vt 0.682540 0.347465
vt 0.667750 0.320907
vt 0.677038 0.314030
vt 0.668613 0.303845
vt 0.801151 0.297809
vt 0.826018 0.299232
vt 0.696004 0.300085
vt 0.718807 0.307813
vt 0.668256 0.292623
vt 0.754469 0.292527
vt 0.779148 0.292175
vt 0.827760 0.352960
vt 0.811452 0.318725
vt 0.777516 0.335331
vt 0.793333 0.368742
vt 0.727243 0.321216
vt 0.743726 0.351996
vt 0.760289 0.302535
vt 0.845528 0.344624
vt 0.835870 0.370348
vt 0.859872 0.379277
vt 0.800050 0.384371
vt 0.757909 0.383450
vt 0.759165 0.383890
vt 0.710189 0.368307
vt 0.708942 0.368004
vt 0.694491 0.340427
vt 0.820343 0.314437
vt 0.682540 0.347465
vt 0.688454 0.372051
vt 0.677038 0.314030
vt 0.667750 0.320907
vt 0.668613 0.303845
vt 0.826018 0.299232
vt 0.801151 0.297809
vt 0.718807 0.307813
vt 0.696004 0.300085
vt 0.668256 0.292623
vt 0.779148 0.292175
vt 0.754469 0.292527
vt 0.821554 0.279299
vt 0.821406 0.283805
vt 0.830736 0.284820
vt 0.830884 0.280315
vt 0.690334 0.286306
vt 0.690186 0.290811
vt 0.698807 0.286104
vt 0.698955 0.281599
vt 0.839254 0.286227
vt 0.839401 0.281722
vt 0.756068 0.281297
vt 0.755921 0.285802
vt 0.765553 0.285558
vt 0.765701 0.281052
vt 0.748352 0.278048
vt 0.748204 0.282553
vt 0.755921 0.285802
vt 0.756068 0.281297
vt 0.783544 0.284317
vt 0.783396 0.288822
vt 0.787535 0.289913
vt 0.787683 0.285408
vt 0.713389 0.278756
vt 0.713241 0.283262
vt 0.728690 0.281343
vt 0.728838 0.276838
vt 0.776911 0.288132
vt 0.777058 0.283626
vt 0.848200 0.285063
vt 0.848052 0.289568
vt 0.853991 0.287902
vt 0.854139 0.283397
vt 0.787683 0.285408
vt 0.787535 0.289913
vt 0.797672 0.285808
vt 0.797819 0.281303
vt 0.777058 0.283626
vt 0.776911 0.288132
vt 0.806574 0.283540
vt 0.806722 0.279034
vt 0.662376 0.277106
vt 0.662228 0.281611
vt 0.676697 0.285817
vt 0.676845 0.281311
vt 0.848052 0.289568
vt 0.848200 0.285063
vt 0.698955 0.281599
vt 0.698807 0.286104
vt 0.806722 0.279034
vt 0.806574 0.283540
vt 0.690186 0.290811
vt 0.690334 0.286306
vn -0.1951 0.0000 -0.9808
vn -0.1914 0.1939 -0.9622
vn 0.0000 0.1939 -0.9810
vn 0.0000 0.0000 -1.0000
vn 0.1804 0.3805 -0.9070
vn 0.1914 0.1939 -0.9622
vn -0.0013 0.3813 -0.9244
vn -0.2010 -0.0980 -0.9747
vn -0.2889 -0.0975 -0.9524
vn -0.2902 -0.0214 -0.9567
vn -0.2856 0.1785 -0.9416
vn -0.1216 0.3426 -0.9316
vn 0.0445 0.5268 -0.8488
vn 0.1617 0.5526 -0.8176
vn 0.0127 -0.0980 -0.9951
vn 0.0725 0.6289 -0.7741
vn 0.1420 0.6324 -0.7614
vn 0.2735 0.6342 -0.7232
vn 0.3189 0.5528 -0.7699
vn 0.4058 0.5089 -0.7591
vn 0.0979 0.0360 -0.9945
vn 0.0975 -0.0975 -0.9904
vn 0.3038 0.4711 -0.8281
vn 0.2654 0.4053 -0.8748
vn 0.4162 0.4696 -0.7786
vn 0.2834 0.2163 -0.9343
vn 0.1303 0.0978 -0.9866
vn 0.1951 0.0000 0.9808
vn 0.0000 0.0000 1.0000
vn 0.0000 -0.1939 0.9810
vn 0.1914 -0.1939 0.9622
vn -0.1804 -0.3805 0.9070
vn 0.0013 -0.3813 0.9244
vn -0.1914 -0.1939 0.9622
vn 0.2010 0.0980 0.9747
vn 0.2902 0.0214 0.9567
vn 0.2889 0.0975 0.9524
vn 0.2856 -0.1785 0.9416
vn 0.1216 -0.3426 0.9316
vn -0.0445 -0.5268 0.8488
vn -0.1617 -0.5526 0.8176
vn -0.0127 0.0980 0.9951
vn -0.1420 -0.6324 0.7614
vn -0.0725 -0.6289 0.7741
vn -0.3189 -0.5528 0.7699
vn -0.2735 -0.6342 0.7232
vn -0.4058 -0.5089 0.7591
vn -0.0975 0.0975 0.9904
vn -0.0979 -0.0360 0.9945
vn -0.2654 -0.4053 0.8748
vn -0.3038 -0.4711 0.8281
vn -0.4162 -0.4696 0.7786
vn -0.1303 -0.0978 0.9866
vn -0.2834 -0.2163 0.9343
vn 0.9682 -0.2498 -0.0149
vn 0.9663 -0.2569 -0.0172
vn 0.8311 -0.5440 -0.1155
vn 0.8406 -0.5302 -0.1106
vn -0.6737 0.7168 0.1797
vn 0.8213 -0.5576 -0.1204
vn 0.8055 -0.5786 -0.1280
vn 0.1923 0.9332 0.3035
vn 0.0850 0.9496 0.3016
vn 0.0938 0.9487 0.3019
vn -0.8436 0.5257 0.1090
vn -0.8751 0.4752 0.0912
vn -0.9565 0.2903 0.0283
vn 0.5018 0.8159 0.2870
vn 0.4999 0.8171 0.2872
vn 0.4906 0.8223 0.2883
vn -0.9562 0.2913 0.0286
vn -0.9692 0.2458 0.0136
vn -0.8172 0.5632 0.1224
vn -0.8100 0.5728 0.1259
vn -0.0152 0.9548 0.2967
vn -0.6720 -0.6934 -0.2599
vn 0.7406 -0.6536 -0.1556
vn 0.7240 -0.6705 -0.1620
vn 0.7143 -0.6800 -0.1655
vn 0.5109 0.8106 0.2860
vn 0.6974 -0.6958 -0.1716
vn 0.2093 -0.9373 -0.2786
vn 0.0040 -0.9547 -0.2974
vn 0.0684 -0.9537 -0.2929
vn 0.8640 -0.4939 -0.0978
vn -0.9960 0.0802 -0.0398
vn 0.9967 -0.0681 0.0436
vn -0.1394 -0.9427 -0.3030
s 1
f 9/1/1 8/2/2 2/3/3 3/4/4
f 5/5/5 6/6/6 2/3/3 1/7/7
f 58/8/8 59/9/9 55/10/10 9/1/1
f 55/10/10 57/11/11 8/2/2 9/1/1
f 8/2/2 61/12/12 1/7/7 2/3/3
f 57/11/11 61/12/12 8/2/2
f 92/13/13 1/7/7 61/14/12
f 92/13/13 4/15/14 5/5/5 1/7/7
f 64/16/15 58/8/8 9/1/1 3/4/4
f 92/17/13 68/18/16 70/19/17 4/15/14
f 4/15/14 70/19/17 71/20/18 7/21/19
f 7/21/19 71/20/18 73/22/20
f 64/16/15 3/4/4 77/23/21 66/24/22
f 5/5/5 4/15/14 7/21/19 74/25/23 75/26/24
f 73/22/20 80/27/25 74/25/23 7/21/19
f 6/6/6 78/28/26 79/29/27
f 5/5/5 75/26/24 78/28/26 6/6/6
f 2/3/3 6/6/6 79/29/27 77/23/21 3/4/4
f 36/30/28 30/31/29 29/32/30 35/33/31
f 32/34/32 28/35/33 29/32/30 33/36/34
f 85/37/35 36/30/28 82/38/36 86/39/37
f 82/38/36 36/30/28 35/33/31 84/40/38
f 35/33/31 29/32/30 28/35/33 62/41/39
f 84/40/38 35/33/31 62/42/39
f 63/43/40 62/41/39 28/35/33
f 63/44/40 28/35/33 32/34/32 31/45/41
f 90/46/42 30/31/29 36/30/28 85/37/35
f 63/44/40 31/45/41 95/47/43 88/48/44
f 31/45/41 34/49/45 96/50/46 95/47/43
f 34/49/45 98/51/47 96/50/46
f 90/46/42 93/52/48 102/53/49 30/31/29
f 32/34/32 100/54/50 99/55/51 34/49/45 31/45/41
f 98/51/47 34/49/45 99/55/51 105/56/52
f 33/36/34 104/57/53 103/58/54
f 32/34/32 33/36/34 103/58/54 100/54/50
f 29/32/30 30/31/29 102/53/49 104/57/53 33/36/34
f 25/59/55 52/60/56 51/61/57 24/62/58
f 60/63/59 87/64/59 83/65/59 56/66/59
f 24/62/58 51/61/57 53/67/60 26/68/61
f 69/69/62 89/70/62 44/71/63 17/72/64
f 14/73/65 41/74/66 47/75/67 20/76/67
f 19/77/68 46/78/69 106/79/70 81/80/70
f 11/81/71 38/82/72 40/83/73 13/84/74
f 17/72/64 44/71/63 97/85/75 72/86/75
f 67/87/76 94/88/76 91/89/76 65/90/76
f 27/91/77 54/92/77 50/93/78 23/94/79
f 18/95/80 45/96/80 46/78/69 19/77/68
f 13/84/74 40/83/73 41/74/66 14/73/65
f 23/94/79 50/93/78 101/97/81 76/98/81
f 12/99/82 39/100/82 42/101/83 15/102/84
f 26/68/61 53/67/60 48/103/85 21/104/85
f 10/105/86 37/106/86 38/82/72 11/81/71
f 22/107/87 49/108/87 52/60/56 25/59/55
f 15/102/84 42/101/83 43/109/88 16/110/88
