# Blender v2.92.0 OBJ File: 'pallo final.blend'
# www.blender.org
o Pala_.012_Sphere.015
v -0.724784 0.000000 -0.724784
v -0.473488 0.569459 -0.708625
v -0.526112 0.392251 -0.787382
v -0.558517 0.199968 -0.835880
v -0.569459 0.000000 -0.852256
v -0.326144 0.569459 -0.787382
v -0.362392 0.392251 -0.874892
v -0.384713 0.199968 -0.928780
v -0.392250 0.000000 -0.946976
v -0.166267 0.569459 -0.835880
v -0.301630 0.000000 -0.974465
v -0.286059 0.199968 -0.958706
v -0.189187 0.392251 -0.927433
v -0.447433 0.554330 -0.660697
v -0.004157 0.569459 -0.851847
v -0.158327 0.619050 -0.795964
v -0.388823 -0.090928 -0.938702
v -0.302787 0.643830 -0.730993
v -0.452942 0.614522 -0.677875
v -0.481318 -0.199967 -0.877143
v -0.519428 0.569459 -0.670922
v -0.559370 -0.184386 -0.837156
v -0.539890 -0.199967 -0.845836
v -0.497564 -0.223491 -0.860408
v -0.719964 -0.069201 -0.719964
v -0.721402 0.048566 -0.721402
v -0.629678 0.199968 -0.777480
v -0.744316 0.000000 -0.700984
v -0.620925 0.392251 -0.709571
v -0.617993 0.511671 -0.629798
v -0.500057 0.377121 -0.739454
v -0.532462 0.184838 -0.787952
v -0.543405 -0.015129 -0.804328
v -0.698730 -0.015129 -0.676856
v -0.300089 0.554330 -0.739453
v -0.336338 0.377121 -0.826964
v -0.358659 0.184838 -0.880852
v -0.366196 -0.015129 -0.899048
v -0.140212 0.554330 -0.787952
v -0.275575 -0.015129 -0.926537
v -0.260005 0.184838 -0.910778
v -0.163133 0.377121 -0.879505
v 0.021898 0.554330 -0.803919
v -0.132272 0.603921 -0.748036
v -0.362768 -0.106058 -0.890774
v -0.276733 0.628701 -0.683065
v -0.426887 0.599393 -0.629947
v -0.493374 0.554330 -0.622994
v -0.455264 -0.215097 -0.829215
v -0.533315 -0.199515 -0.789228
v -0.513835 -0.215097 -0.797908
v -0.471509 -0.238620 -0.812480
v -0.693910 -0.084331 -0.672036
v -0.695347 0.033437 -0.673474
v -0.603623 0.184838 -0.729551
v -0.718262 -0.015129 -0.653056
v -0.594870 0.377121 -0.661643
v -0.591939 0.496542 -0.581870
v -0.286059 0.199968 -0.958706
v -0.301630 0.000000 -0.974465
v -0.301630 0.000000 -0.974465
v -0.004157 0.569459 -0.851847
v -0.004157 0.569459 -0.851847
v -0.189187 0.392251 -0.927433
v -0.158327 0.619050 -0.795964
v -0.302787 0.643830 -0.730993
v -0.388823 -0.090928 -0.938702
v -0.452942 0.614522 -0.677875
v -0.519428 0.569459 -0.670922
v -0.481318 -0.199967 -0.877143
v -0.497564 -0.223491 -0.860408
v -0.497564 -0.223491 -0.860408
v -0.617993 0.511671 -0.629798
v -0.617993 0.511671 -0.629798
v -0.539890 -0.199967 -0.845836
v -0.559370 -0.184386 -0.837156
v -0.719964 -0.069201 -0.719964
v -0.719964 -0.069201 -0.719964
v -0.744316 0.000000 -0.700984
v -0.744316 0.000000 -0.700984
v -0.721402 0.048566 -0.721402
v -0.629678 0.199968 -0.777480
v -0.629678 0.199968 -0.777480
v -0.620925 0.392251 -0.709571
v -0.260005 0.184838 -0.910778
v -0.275575 -0.015129 -0.926537
v -0.275575 -0.015129 -0.926537
v 0.021898 0.554330 -0.803919
v 0.021898 0.554330 -0.803919
v -0.163133 0.377121 -0.879505
v -0.132272 0.603921 -0.748036
v -0.276733 0.628701 -0.683065
v -0.362768 -0.106058 -0.890774
v -0.426887 0.599393 -0.629947
v -0.493374 0.554330 -0.622994
v -0.455264 -0.215097 -0.829215
v -0.471509 -0.238620 -0.812480
v -0.471509 -0.238620 -0.812480
v -0.591939 0.496542 -0.581870
v -0.591939 0.496542 -0.581870
v -0.513835 -0.215097 -0.797908
v -0.533315 -0.199515 -0.789228
v -0.693910 -0.084331 -0.672036
v -0.693910 -0.084331 -0.672036
v -0.718262 -0.015129 -0.653056
v -0.718262 -0.015129 -0.653056
v -0.695347 0.033437 -0.673474
v -0.603623 0.184838 -0.729551
v -0.603623 0.184838 -0.729551
v -0.594870 0.377121 -0.661643
vt 0.082933 0.542898
vt 0.073145 0.508119
vt 0.101714 0.498671
vt 0.114476 0.532328
vt 0.093367 0.577371
vt 0.126821 0.566106
vt 0.104280 0.611781
vt 0.138622 0.600286
vt 0.144286 0.559456
vt 0.154986 0.594687
vt 0.144645 0.519650
vt 0.129244 0.486616
vt 0.145031 0.518497
vt 0.154986 0.472031
vt 0.124015 0.476192
vt 0.095493 0.482444
vt 0.143961 0.616088
vt 0.070335 0.497895
vt 0.062587 0.510446
vt 0.114757 0.643686
vt 0.119342 0.645225
vt 0.130920 0.641506
vt 0.128423 0.647033
vt 0.073648 0.634976
vt 0.069748 0.622903
vt 0.064397 0.624629
vt 0.067014 0.614432
vt 0.077286 0.582022
vt 0.061459 0.548303
vt 0.047203 0.526350
vt 0.082933 0.542898
vt 0.114476 0.532328
vt 0.101714 0.498671
vt 0.073145 0.508119
vt 0.093367 0.577371
vt 0.126821 0.566106
vt 0.104280 0.611781
vt 0.138622 0.600286
vt 0.154986 0.594687
vt 0.144286 0.559456
vt 0.144645 0.519650
vt 0.129244 0.486616
vt 0.145031 0.518497
vt 0.154986 0.472031
vt 0.124015 0.476192
vt 0.095493 0.482444
vt 0.143961 0.616088
vt 0.070335 0.497895
vt 0.062587 0.510446
vt 0.114757 0.643686
vt 0.119342 0.645225
vt 0.130920 0.641506
vt 0.128423 0.647033
vt 0.069748 0.622903
vt 0.073648 0.634976
vt 0.064397 0.624629
vt 0.067014 0.614432
vt 0.077286 0.582022
vt 0.061459 0.548303
vt 0.047203 0.526350
vt 0.040845 0.499860
vt 0.036883 0.499860
vt 0.037226 0.508352
vt 0.041188 0.508352
vt 0.043433 0.490145
vt 0.039471 0.490145
vt 0.036883 0.499860
vt 0.040845 0.499860
vt 0.037893 0.536349
vt 0.033931 0.536349
vt 0.031349 0.548058
vt 0.035311 0.548058
vt 0.036880 0.616193
vt 0.032918 0.616193
vt 0.033858 0.619605
vt 0.037820 0.619605
vt 0.037788 0.614060
vt 0.033826 0.614060
vt 0.032918 0.616193
vt 0.036880 0.616193
vt 0.039160 0.525200
vt 0.035198 0.525200
vt 0.034262 0.621409
vt 0.038224 0.621409
vt 0.042435 0.565342
vt 0.038473 0.565342
vt 0.039850 0.580507
vt 0.043812 0.580507
vt 0.041507 0.594397
vt 0.037545 0.594397
vt 0.036534 0.603507
vt 0.040496 0.603507
vt 0.034646 0.637485
vt 0.038608 0.637485
vt 0.040301 0.513924
vt 0.036339 0.513924
vt 0.039562 0.642702
vt 0.035600 0.642702
vt 0.036980 0.646478
vt 0.040942 0.646478
vt 0.037545 0.594397
vt 0.041507 0.594397
vt 0.040180 0.659074
vt 0.044142 0.659074
vt 0.038608 0.637485
vt 0.034646 0.637485
vt 0.035600 0.642702
vt 0.039562 0.642702
vt 0.044142 0.475878
vt 0.040180 0.475878
vt 0.035311 0.548058
vt 0.031349 0.548058
vn -0.5137 0.3805 -0.7689
vn -0.4630 0.5528 -0.6929
vn -0.3189 0.5528 -0.7699
vn -0.3539 0.3805 -0.8544
vn -0.5450 0.1939 -0.8157
vn -0.3754 0.1939 -0.9063
vn -0.5556 0.0000 -0.8314
vn -0.3827 0.0000 -0.9239
vn -0.2840 0.2065 -0.9363
vn -0.2901 0.0348 -0.9564
vn -0.2325 0.4088 -0.8825
vn -0.1620 0.5519 -0.8180
vn -0.0837 0.5201 -0.8500
vn -0.1649 0.6343 -0.7552
vn -0.2949 0.6344 -0.7145
vn -0.4247 -0.0979 -0.9000
vn -0.4048 0.6341 -0.6588
vn -0.5456 0.5103 -0.6648
vn -0.5236 -0.0979 -0.8463
vn -0.4674 -0.1301 -0.8744
vn -0.4662 -0.1481 -0.8722
vn -0.4513 -0.2890 -0.8443
vn -0.6559 -0.0978 -0.7484
vn -0.7071 0.0000 -0.7071
vn -0.7730 -0.0066 -0.6344
vn -0.6583 0.0978 -0.7463
vn -0.6236 0.1836 -0.7598
vn -0.5827 0.3954 -0.7100
vn -0.5601 0.4696 -0.6825
vn 0.5137 -0.3805 0.7689
vn 0.3539 -0.3805 0.8544
vn 0.3189 -0.5528 0.7699
vn 0.4630 -0.5528 0.6929
vn 0.5450 -0.1939 0.8157
vn 0.3754 -0.1939 0.9063
vn 0.5556 0.0000 0.8314
vn 0.3827 0.0000 0.9239
vn 0.2901 -0.0348 0.9564
vn 0.2840 -0.2065 0.9363
vn 0.2325 -0.4088 0.8825
vn 0.1620 -0.5519 0.8180
vn 0.0837 -0.5201 0.8500
vn 0.1649 -0.6343 0.7552
vn 0.2949 -0.6344 0.7145
vn 0.4247 0.0979 0.9000
vn 0.4048 -0.6341 0.6588
vn 0.5456 -0.5103 0.6648
vn 0.5236 0.0979 0.8463
vn 0.4674 0.1301 0.8744
vn 0.4662 0.1481 0.8722
vn 0.4513 0.2890 0.8443
vn 0.7071 0.0000 0.7071
vn 0.6559 0.0978 0.7484
vn 0.7730 0.0066 0.6344
vn 0.6583 -0.0978 0.7463
vn 0.6236 -0.1836 0.7598
vn 0.5827 -0.3954 0.7100
vn 0.5601 -0.4696 0.6825
vn -0.3126 0.8437 0.4363
vn -0.3883 0.7970 0.4627
vn -0.3829 0.8006 0.4609
vn -0.8871 -0.1753 0.4269
vn -0.8866 -0.1882 0.4225
vn -0.8820 -0.2466 0.4016
vn 0.2855 0.9475 0.1439
vn 0.2960 0.9452 0.1374
vn 0.3402 0.9339 0.1098
vn -0.4884 -0.8726 -0.0099
vn -0.5381 -0.8424 0.0266
vn -0.5559 -0.8303 0.0401
vn 0.5045 -0.7059 -0.4971
vn 0.5052 -0.7053 -0.4973
vn 0.5067 -0.7040 -0.4977
vn 0.0781 0.9621 0.2612
vn 0.0993 0.9631 0.2500
vn -0.5831 -0.8100 0.0613
vn -0.5799 -0.8125 0.0588
vn 0.7520 -0.3894 -0.5318
vn 0.7364 -0.4176 -0.5322
vn 0.8423 -0.1698 -0.5115
vn 0.8403 -0.1765 -0.5125
vn 0.5180 -0.6936 -0.5005
vn 0.5098 -0.7012 -0.4985
vn 0.5115 -0.6996 -0.4989
vn -0.5609 -0.8267 0.0439
vn -0.2842 0.8591 0.4257
vn -0.2512 0.8754 0.4129
vn -0.6608 0.5336 0.5277
vn -0.6481 0.5506 0.5261
vn -0.6420 0.5585 0.5253
vn 0.8742 -0.0298 -0.4846
vn -0.6289 0.5749 0.5234
vn -0.8540 -0.3937 0.3399
vn -0.8876 -0.1169 0.4456
vn 0.6893 -0.4934 -0.5304
s 1
f 3/1/1 2/2/2 6/3/3 7/4/4
f 4/5/5 3/1/1 7/4/4 8/6/6
f 5/7/7 4/5/5 8/6/6 9/8/8
f 9/8/8 8/6/6 59/9/9 60/10/10
f 8/6/6 7/4/4 64/11/11 59/9/9
f 7/4/4 6/3/3 10/12/12 64/11/11
f 64/13/11 10/12/12 62/14/13
f 10/12/12 65/15/14 62/14/13
f 6/3/3 66/16/15 65/15/14 10/12/12
f 60/10/10 67/17/16 9/8/8
f 68/18/17 66/16/15 6/3/3 2/2/2
f 69/19/18 68/18/17 2/2/2
f 76/20/19 5/7/7 75/21/20
f 20/22/21 71/23/22 75/21/20
f 76/20/19 77/24/23 1/25/24 5/7/7
f 79/26/25 81/27/26 1/25/24
f 1/25/24 81/27/26 82/28/27 4/5/5 5/7/7
f 79/26/25 1/25/24 77/24/23
f 82/28/27 84/29/28 3/1/1 4/5/5
f 84/29/28 73/30/29 69/19/18
f 31/31/30 36/32/31 35/33/32 14/34/33
f 32/35/34 37/36/35 36/32/31 31/31/30
f 33/37/36 38/38/37 37/36/35 32/35/34
f 38/38/37 86/39/38 85/40/39 37/36/35
f 37/36/35 85/40/39 90/41/40 36/32/31
f 36/32/31 90/41/40 39/42/41 35/33/32
f 90/43/40 88/44/42 39/42/41
f 39/42/41 88/44/42 91/45/43
f 35/33/32 39/42/41 91/45/43 92/46/44
f 86/39/38 38/38/37 93/47/45
f 94/48/46 14/34/33 35/33/32 92/46/44
f 95/49/47 14/34/33 94/48/46
f 102/50/48 101/51/49 33/37/36
f 49/52/50 101/51/49 97/53/51
f 102/50/48 33/37/36 34/54/52 103/55/53
f 105/56/54 34/54/52 107/57/55
f 34/54/52 33/37/36 32/35/34 108/58/56 107/57/55
f 105/56/54 103/55/53 34/54/52
f 108/58/56 32/35/34 31/31/30 110/59/57
f 110/59/57 95/49/47 99/60/58
f 74/61/59 100/62/59 48/63/60 21/64/61
f 29/65/62 57/66/63 58/67/64 30/68/64
f 16/69/65 44/70/66 89/71/67 63/72/67
f 72/73/68 98/74/68 51/75/69 23/76/70
f 70/77/71 96/78/72 52/79/73 24/80/73
f 18/81/74 46/82/75 44/70/66 16/69/65
f 23/76/70 51/75/69 50/83/76 22/84/77
f 13/85/78 42/86/79 41/87/80 12/88/81
f 61/89/82 87/90/82 45/91/83 17/92/84
f 22/84/77 50/83/76 104/93/85 78/94/85
f 19/95/86 47/96/87 46/82/75 18/81/74
f 80/97/88 106/98/88 54/99/89 26/100/90
f 12/88/81 41/87/80 40/101/91 11/102/91
f 21/64/61 48/63/60 47/96/87 19/95/86
f 26/100/90 54/99/89 109/103/92 83/104/92
f 17/92/84 45/91/83 96/78/72 70/77/71
f 25/105/93 53/106/93 56/107/93 28/108/93
f 27/109/94 55/110/94 57/66/63 29/65/62
f 15/111/95 43/112/95 42/86/79 13/85/78
f 5/7/7 9/8/8 20/22/21 75/21/20
f 9/8/8 67/17/16 20/22/21
f 49/52/50 93/47/45 38/38/37
f 101/51/49 49/52/50 38/38/37 33/37/36
f 69/19/18 2/2/2 3/1/1 84/29/28
f 95/49/47 110/59/57 31/31/30 14/34/33
